<?xml version="1.0" encoding="utf-8"?><svg xmlns="http://www.w3.org/2000/svg" xmlns:xlink="http://www.w3.org/1999/xlink" style="display:none;"><symbol id="si-zfinder-add" viewBox="0 0 48 48"><path d="M38 26H26v12h-4V26H10v-4h12V10h4v12h12v4z"/><path d="M0 0h48v48H0z" fill="none"/></symbol><symbol id="si-zfinder-add-circle" viewBox="0 0 48 48"><path d="M0 0h48v48H0z" fill="none"/><path d="M24 4C12.95 4 4 12.95 4 24s8.95 20 20 20 20-8.95 20-20S35.05 4 24 4zm10 22h-8v8h-4v-8h-8v-4h8v-8h4v8h8v4z"/></symbol><symbol id="si-zfinder-add-circle-outline" viewBox="0 0 48 48"><path d="M0 0h48v48H0z" fill="none"/><path d="M26 14h-4v8h-8v4h8v8h4v-8h8v-4h-8v-8zM24 4C12.95 4 4 12.95 4 24s8.95 20 20 20 20-8.95 20-20S35.05 4 24 4zm0 36c-8.82 0-16-7.18-16-16S15.18 8 24 8s16 7.18 16 16-7.18 16-16 16z"/></symbol><symbol id="si-zfinder-arrow-down" viewBox="0 0 48 48"><path d="M14.83 16.42L24 25.59l9.17-9.17L36 19.25l-12 12-12-12z"/><path d="M0-.75h48v48H0z" fill="none"/></symbol><symbol id="si-zfinder-arrow-left" viewBox="0 0 48 48"><path d="M30.83 32.67l-9.17-9.17 9.17-9.17L28 11.5l-12 12 12 12z"/><path d="M0-.5h48v48H0z" fill="none"/></symbol><symbol id="si-zfinder-arrow-right" viewBox="0 0 48 48"><path d="M17.17 32.92l9.17-9.17-9.17-9.17L20 11.75l12 12-12 12z"/><path d="M0-.25h48v48H0z" fill="none"/></symbol><symbol id="si-zfinder-arrow-tail-down" viewBox="0 0 48 48"><path fill="none" d="M0 0h48v48H0V0z"/><path d="M40 24l-2.82-2.82L26 32.34V8h-4v24.34L10.84 21.16 8 24l16 16 16-16z"/></symbol><symbol id="si-zfinder-arrow-tail-left" viewBox="0 0 48 48"><path d="M0 0h48v48H0z" fill="none"/><path d="M40 22H15.66l11.17-11.17L24 8 8 24l16 16 2.83-2.83L15.66 26H40v-4z"/></symbol><symbol id="si-zfinder-arrow-tail-right" viewBox="0 0 48 48"><path d="M0 0h48v48H0z" fill="none"/><path d="M24 8l-2.83 2.83L32.34 22H8v4h24.34L21.17 37.17 24 40l16-16z"/></symbol><symbol id="si-zfinder-arrow-tail-up" viewBox="0 0 48 48"><path fill="none" d="M0 0h48v48H0V0z"/><path d="M8 24l2.83 2.83L22 15.66V40h4V15.66l11.17 11.17L40 24 24 8 8 24z"/></symbol><symbol id="si-zfinder-arrow-up" viewBox="0 0 48 48"><path d="M14.83 30.83L24 21.66l9.17 9.17L36 28 24 16 12 28z"/><path d="M0 0h48v48H0z" fill="none"/></symbol><symbol id="si-zfinder-auto-renew" viewBox="0 0 48 48"><path d="M24 12v6l8-8-8-8v6C15.16 8 8 15.16 8 24c0 3.14.92 6.05 2.48 8.52l2.92-2.92c-.89-1.67-1.4-3.57-1.4-5.6 0-6.63 5.37-12 12-12zm13.52 3.48L34.6 18.4c.89 1.67 1.4 3.57 1.4 5.6 0 6.63-5.37 12-12 12v-6l-8 8 8 8v-6c8.84 0 16-7.16 16-16 0-3.14-.92-6.05-2.48-8.52z"/><path d="M0 0h48v48H0z" fill="none"/></symbol><symbol id="si-zfinder-barcode" baseProfile="full" viewBox="0 0 76.00 76.00"><path d="M19 19h1.188v38H19V19zm3.167 0h1.583v38h-1.583V19zm3.166 0H28.5v38h-3.167V19zm4.75 0h1.584v38h-1.584V19zm3.167 0h.792v38h-.792V19zM38 19h4.75v38H38V19zm6.333 0h1.584v38h-1.584V19zm6.334 0h3.166v38h-3.166V19zm4.75 0H57v38h-1.583V19zM47.5 19h.792v38H47.5V19z"/></symbol><symbol id="si-zfinder-cancel" baseProfile="full" viewBox="0 0 76.00 76.00"><path d="M38 19c10.493 0 19 8.507 19 19s-8.507 19-19 19-19-8.507-19-19 8.507-19 19-19zm0 4.75c-2.788 0-5.39.8-7.587 2.185l19.652 19.652A14.183 14.183 0 0 0 52.25 38c0-7.87-6.38-14.25-14.25-14.25zM23.75 38c0 7.87 6.38 14.25 14.25 14.25 2.788 0 5.39-.8 7.587-2.185L25.934 30.414A14.184 14.184 0 0 0 23.75 38z"/></symbol><symbol id="si-zfinder-check" baseProfile="full" viewBox="0 0 76.00 76.00"><path d="M23.75 33.25l11.083 11.083L52.25 22.167l4.75 4.75-22.167 26.916L19 38l4.75-4.75z"/></symbol><symbol id="si-zfinder-checklist" viewBox="0 0 16 16"><path d="M16 8.5l-6 6-3-3L8.5 10l1.5 1.5L14.5 7 16 8.5zM5.7 12.2l.8.8H2c-.55 0-1-.45-1-1V3c0-.55.45-1 1-1h7c.55 0 1 .45 1 1v6.5l-.8-.8c-.39-.39-1.03-.39-1.42 0L5.7 10.8a.996.996 0 0 0 0 1.41v-.01zM4 4h5V3H4v1zm0 2h5V5H4v1zm0 2h3V7H4v1zM3 9H2v1h1V9zm0-2H2v1h1V7zm0-2H2v1h1V5zm0-2H2v1h1V3z"/></symbol><symbol id="si-zfinder-checkmark" baseProfile="full" viewBox="0 0 76.00 76.00"><path d="M32.222 33.487l6.967 6.571L51.38 26.125l3.325 2.93L39.585 47.5 28.896 36.812l3.325-3.325zM24 27h24.5l-3 3H27v19h19v-6.5l3-3.75V52H24V27z"/></symbol><symbol id="si-zfinder-checkmark-uncrossed" baseProfile="full" viewBox="0 0 76.00 76.00"><path d="M22 54V22h32v32H22zm4-28v24h24V26H26z"/></symbol><symbol id="si-zfinder-close" baseProfile="full" viewBox="0 0 76.00 76.00"><path d="M26.917 22.167L38 33.25l11.083-11.083 4.75 4.75L42.75 38l11.083 11.083-4.75 4.75L38 42.75 26.917 53.833l-4.75-4.75L33.25 38 22.167 26.917l4.75-4.75z"/></symbol><symbol id="si-zfinder-control-play" baseProfile="full" viewBox="0 0 76.00 76.00"><path d="M30.083 22.167l20.584 15.437v1.188L30.082 53.833V22.167z"/></symbol><symbol id="si-zfinder-database" baseProfile="full" viewBox="0 0 76.00 76.00"><path d="M38 19c9.389 0 17 2.015 17 4.504V25.5c0 2.485-7.611 4.5-17 4.5s-17-2.015-17-4.5v-2c0-2.485 7.611-4.5 17-4.5zm17 33.5c0 2.485-7.611 4.5-17 4.5s-17-2.015-17-4.5v-6c0 2.485 7.611 4.5 17 4.5 9.384 0 16.992-2.013 17-4.496V52.5zm0-9c0 2.485-7.611 4.5-17 4.5s-17-2.015-17-4.5v-6c0 2.485 7.611 4.5 17 4.5 9.384 0 16.992-2.013 17-4.496V43.5zm0-9c0 2.485-7.611 4.5-17 4.5s-17-2.015-17-4.5v-6c0 2.485 7.611 4.5 17 4.5 9.384 0 16.992-2.013 17-4.496V34.5z"/></symbol><symbol id="si-zfinder-delete" baseProfile="full" viewBox="0 0 76.00 76.00"><path d="M25.333 23.75h25.334c.874 0 1.187 3.563 1.187 3.563H24.146s.313-3.563 1.187-3.563zm10.292-3.958h4.75c.437 0 1.583 1.146 1.583 1.583 0 .437-1.146 1.583-1.583 1.583h-4.75c-.437 0-1.583-1.146-1.583-1.583 0-.437 1.146-1.583 1.583-1.583zM27.708 28.5h20.584c.874 0 1.583.709 1.583 1.583l-1.583 23.75c0 .875-.71 1.584-1.584 1.584H29.292a1.583 1.583 0 0 1-1.584-1.584l-1.583-23.75c0-.874.709-1.583 1.583-1.583zm2.375 3.167l.396 20.583h2.771l-.396-20.583h-2.77zm6.334 0V52.25h3.166V31.667h-3.166zm6.729 0L42.75 52.25h2.77l.397-20.583h-2.771z"/></symbol><symbol id="si-zfinder-disk-download" baseProfile="full" viewBox="0 0 76.00 76.00"><path d="M48 39h8v10h7.25L52 60.25 40.75 49H48V39zM20 20h30.25L56 25.75V38h-4V27.25L48.75 24H48v13H28V24h-4v28h18.25l4 4H20V20zm19 4v10h5V24h-5z"/></symbol><symbol id="si-zfinder-disk-upload" baseProfile="full" viewBox="0 0 76.00 76.00"><path d="M48 60h8V50h7.25L52 38.75 40.75 50H48v10zM20 20h30.25L56 25.75v14.5l-4-4v-9L48.75 24H48v13H28V24h-4v28h22v4H20V20zm19 4v10h5V24h-5z"/></symbol><symbol id="si-zfinder-download" baseProfile="full" viewBox="0 0 76.00 76.00"><path d="M25 52h26v5H25v-5zm10-36h6v20.5l8-9.5v9.5L38 49 27 36.5V27l8 9.5V16z"/></symbol><symbol id="si-zfinder-edit" baseProfile="full" viewBox="0 0 76.00 76.00"><path d="M53.293 21.293l1.414 1.414a4.5 4.5 0 0 1 0 6.364l-2.475 2.475-7.778-7.778 2.475-2.475a4.5 4.5 0 0 1 6.364 0zM31.726 52.052l-7.778-7.778L43.04 25.182l7.778 7.778-19.092 19.092zm-8.485-4.95l5.657 5.657-7.852 2.195 2.195-7.852z"/></symbol><symbol id="si-zfinder-edit-add" baseProfile="full" viewBox="0 0 76.00 76.00"><path d="M53.293 21.293l1.414 1.414a4.5 4.5 0 0 1 0 6.364l-2.475 2.475-7.778-7.778 2.475-2.475a4.5 4.5 0 0 1 6.364 0zM31.726 52.052l-7.778-7.778L43.04 25.182l7.778 7.778-19.092 19.092zm-8.485-4.95l5.657 5.657-7.852 2.195 2.195-7.852zM17 28v-5h6v-6h5v6h6v5h-6v6h-5v-6h-6z"/></symbol><symbol id="si-zfinder-edit-box" baseProfile="full" viewBox="0 0 76.00 76.00"><path d="M54.682 20.105l1.213 1.213a3.86 3.86 0 0 1 0 5.458L53.772 28.9l-6.67-6.671 2.122-2.123a3.86 3.86 0 0 1 5.458 0zM36.185 46.486l-6.671-6.67L45.888 23.44l6.671 6.67-16.374 16.375zm-7.278-4.245l4.852 4.852-6.734 1.882 1.882-6.734zM19 57V25h21.806l-4 4H23v24h30V32.691l4-4V57H19z"/></symbol><symbol id="si-zfinder-edit-minus" baseProfile="full" viewBox="0 0 76.00 76.00"><path d="M53.293 21.293l1.414 1.414a4.5 4.5 0 0 1 0 6.364l-2.475 2.475-7.778-7.778 2.475-2.475a4.5 4.5 0 0 1 6.364 0zM31.726 52.052l-7.778-7.778L43.04 25.182l7.778 7.778-19.092 19.092zm-8.485-4.95l5.657 5.657-7.852 2.195 2.195-7.852zM17 28v-5h17v5H17z"/></symbol><symbol id="si-zfinder-email" baseProfile="full" viewBox="0 0 76.00 76.00"><path d="M21.5 23h33c1.749 0 3.5 1.751 3.5 3.5v23c0 1.749-1.751 3.5-3.5 3.5h-33c-1.749 0-3.5-1.751-3.5-3.5v-23c0-1.749 1.751-3.5 3.5-3.5zm.5 24c0 1.312.688 2 2 2h28c1.312 0 2-.688 2-2V29L40.656 42.657a3.167 3.167 0 0 1-4.478 0L22 29v18zm3-20l11.738 11.738a2.375 2.375 0 0 0 3.358 0L52 27H25z"/></symbol><symbol id="si-zfinder-eye" viewBox="0 0 16 16"><path d="M8.06 2C3 2 0 8 0 8s3 6 8.06 6C13 14 16 8 16 8s-3-6-7.94-6zM8 12c-2.2 0-4-1.78-4-4 0-2.2 1.8-4 4-4 2.22 0 4 1.8 4 4 0 2.22-1.78 4-4 4zm2-4c0 1.11-.89 2-2 2-1.11 0-2-.89-2-2 0-1.11.89-2 2-2 1.11 0 2 .89 2 2z"/></symbol><symbol id="si-zfinder-file-archive" baseProfile="full" viewBox="0 0 76.00 76.00"><path d="M31.667 17.417h19c.874 0 1.583.709 1.583 1.583v1.583c0 .875-.709 1.584-1.583 1.584h-6.334a1.583 1.583 0 0 1-1.583-1.584c-.012 0-3.173.003-6.333 1.584L33.25 23.75h-1.583v20.583h1.583c4.74 3.16 9.48 3.167 9.5 3.167 0-.874.709-1.583 1.583-1.583h6.334c.874 0 1.583.709 1.583 1.583v1.583c0 .875-.709 1.584-1.583 1.584h-14.25s-2.191 0-4.75-.228v1.811h-.792v1.583H41.59a3.167 3.167 0 1 1 0 3.167h-8.34v1.583c0 .875-.709 1.584-1.583 1.584h-6.334a1.583 1.583 0 0 1-1.583-1.584V57h-2.007a3.167 3.167 0 1 1 0-3.167h4.382V52.25h-.792v-3.08c-.964-.425-1.583-.97-1.583-1.67v-3.167h1.583V23.75H23.75V19c0-1.583 7.917-1.583 7.917-1.583zm9.5 6.333h10.687l6.73 6.73v13.853H41.166V23.75zm3.166 3.167v14.25h11.084v-6.334H47.5v-7.916h-3.167zm6.334 0v4.75h4.75l-4.75-4.75z"/></symbol><symbol id="si-zfinder-file-binary" viewBox="0 0 12 16"><path d="M4 12h1v1H2v-1h1v-2H2V9h2v3zm8-7.5V14c0 .55-.45 1-1 1H1c-.55 0-1-.45-1-1V2c0-.55.45-1 1-1h7.5L12 4.5zM11 5L8 2H1v12h10V5zM8 4H6v1h1v2H6v1h3V7H8V4zM2 4h3v4H2V4zm1 3h1V5H3v2zm3 2h3v4H6V9zm1 3h1v-2H7v2z"/></symbol><symbol id="si-zfinder-file-code" baseProfile="full" viewBox="0 0 76.00 76.00"><path d="M19 17h22.25L54 29.75V37h-4v-3H37V21H23v34h11.75l.5 4H19V17zm22 5.25V30h7.75L41 22.25zM42 55h9l-1 4h-7l-1-4zm7-17h4s3 0 3 5v3s0 3 4 3v3c-4 0-4 3-4 3v3c0 5-3 5-3 5h-4v-3h2c2 0 2-3 2-3v-3.5c0-2.966 2.932-3 2.999-3-.067 0-2.999-.034-2.999-3V44s0-3-2-3h-2v-3zm-5 0v3h-2c-2 0-2 3-2 3v3.5c0 2.966-2.932 3-2.999 3 .067 0 2.999.034 2.999 3V57s0 3 2 3h2v3h-4s-3 0-3-5v-3s0-3-4-3v-3c4 0 4-3 4-3v-3c0-5 3-5 3-5h4z"/></symbol><symbol id="si-zfinder-file-coffeescript" viewBox="0 0 32 32"><path d="M16.587 7.569c-.4.118-1.293.517-1.998.917-1.622.917-2.751 1.128-3.385.658-.4-.329-.423-.399-.117-.611.188-.141.752-.212 1.222-.188.494.023.893-.047.893-.165.023-.423-2.257-.423-2.68 0-.87.893-.024 1.787 1.834 1.951 1.081.094 1.528-.023 3.15-.752 2.116-.964 3.714-1.269 4.49-.87.588.329.658.846.117 1.058-.682.258-1.904.141-2.21-.188-.306-.399-.94-.235-.94.235 0 .964 3.573 1.105 4.49.165 1.481-1.458-1.787-2.939-4.866-2.21zM6.029 9.121c-1.928 1.034-.07 2.445 4.137 3.15 5.336.893 13.729.235 15.985-1.246.729-.47.776-1.434.118-1.787-.4-.212-.47-.188-.47.212 0 1.293-3.738 2.139-9.544 2.139-6.394 0-10.061-.917-9.591-2.421.141-.47.141-.47-.635-.047zm.01 3.573c.094.353.306 1.128.47 1.693.306 1.011.282 1.034-.517 1.857-1.81 1.881-1.646 4.466.423 5.995.705.517 2.633.635 3.08.188.188-.188.117-.259-.259-.259-.611 0-2.045-1.223-2.539-2.139-.47-.94-.423-2.398.117-3.056l.447-.564.235.588c.141.329.846 1.505 1.599 2.586.752 1.105 1.528 2.469 1.74 3.056.353.917.588 1.152 1.763 1.763 1.152.564 1.716.705 3.503.776 3.479.165 5.994-.87 6.371-2.562.094-.4.823-1.693 1.622-2.868 1.504-2.233 2.186-3.597 2.821-5.783.564-1.928.541-1.951-.87-1.316-2.116.964-5.501 1.363-10.485 1.223-5.101-.141-6.982-.494-9.497-1.763-.094-.047-.117.211-.023.588z"/></symbol><symbol id="si-zfinder-file-csharp" baseProfile="full" viewBox="0 0 76.00 76.00"><path d="M35.964 46.338c-.674.273-1.49.491-2.45.655-.958.165-1.943.249-2.955.253-2.872-.03-5.098-.847-6.677-2.45-1.579-1.604-2.38-3.813-2.401-6.63.06-3.091.932-5.4 2.617-6.923 1.686-1.524 3.825-2.285 6.419-2.281 1.162.01 2.195.114 3.098.315.903.2 1.672.44 2.306.718l1.352-5.163c-.583-.307-1.476-.585-2.682-.833-1.205-.248-2.647-.38-4.328-.394-4.413.029-8.071 1.33-10.973 3.907-2.901 2.575-4.405 6.25-4.512 11.026.005 4.053 1.252 7.389 3.741 10.007 2.49 2.618 6.194 3.973 11.111 4.064 1.728-.017 3.223-.152 4.486-.407 1.264-.254 2.189-.526 2.777-.818l-.93-5.046zM48.001 40.876l.676-5.12h3.842l-.633 5.12h-3.885zm-1.689 11.347l1.056-7.6h3.842l-1.098 7.6h3.8l1.056-7.6h4.138v-3.747h-3.462l.633-5.12h4.012V32.01H56.91l1.055-7.178h-3.758l-1.055 7.178h-3.885l1.056-7.178h-3.716L45.51 32.01h-4.138v3.747h3.547l-.676 5.12h-4.096v3.746h3.463l-1.098 7.6h3.8z"/></symbol><symbol id="si-zfinder-file-css" viewBox="0 0 32 32"><path d="M16.017 21.044zM4.743 3.519L6.792 26.5l9.194 2.552 9.22-2.556 2.051-22.977H4.743zM23 8.775l-.693 7.767-.48 5.359-.042.476-5.781 1.603-5.773-1.603-.395-4.426h2.829l.201 2.248 3.142.847.008-.002h.002l3.134-.846.329-3.655h-6.579l-.056-.633-.129-1.429-.067-.756h7.081l.258-2.886H9.203l-.056-.634-.129-1.429-.067-.756h14.118l-.068.756z"/></symbol><symbol id="si-zfinder-file-diff" viewBox="0 0 13 16"><path d="M6 7h2v1H6v2H5V8H3V7h2V5h1v2zm-3 6h5v-1H3v1zM7.5 2L11 5.5V15c0 .55-.45 1-1 1H1c-.55 0-1-.45-1-1V3c0-.55.45-1 1-1h6.5zM10 6L7 3H1v12h9V6zM8.5 0H3v1h5l4 4v8h1V4.5L8.5 0z"/></symbol><symbol id="si-zfinder-file-excel" baseProfile="full" viewBox="0 0 76.00 76.00"><path d="M19 17h22.25L54 29.75V37h-4v-4H38V21H23v34h11.25L31 59H19V17zm35 39.75L50 51v-4l4-5v14.75zM40.25 59l2.985-3.655L45.5 59h-5.25zM41 22.25V30h7.75L41 22.25zM32.25 38h7.25l4.537 6.422L49 38h6.5l-8.493 10.704L57 63h-7.5l-6.278-9.48L38 60h-6.5l8.753-10.761L32.25 38z"/></symbol><symbol id="si-zfinder-file-gif" baseProfile="full" viewBox="0 0 76.00 76.00"><path d="M38 50.5a2.5 2.5 0 0 1-2.5 2.5h-1a2.5 2.5 0 0 1-2.5-2.5v-3a2.5 2.5 0 0 1 2.5-2.5h1c1.38 0 2.5.12 2.5 2h-3a1 1 0 0 0-1 1v2a1 1 0 0 0 1 1c.552 0 1-.224 1-.5s-.448-.5-1-.5v-2h3v2.5zm8 2.5v-8h4v2h-2v1h2v2h-2v3h-2zm-7-8h6v2h-2v4h2v2h-6v-2h2v-4h-2v-2zm13-11H40V21H24v34h28V34zM20 59V17h23.25L56 29.75V59H20zm23-36.75V30h7.75L43 22.25z"/></symbol><symbol id="si-zfinder-file-hidden" baseProfile="full" viewBox="0 0 76.00 76.00"><path d="M20 17h5v4h-1v1h-4v-5zm23.25 0l3.168 3.168-2.75 2.75L43 22.25V22h-4v-5h4.25zM56 29.75V34h-5v-4h-.25l-.668-.668 2.75-2.75L56 29.75zm-10.918-5.418l2.75-2.75 3.586 3.586-2.75 2.75-3.586-3.586zM43 28h-4v-4h4v4zm2 6v-4h4v4h-4zm11 12h-4v-4h4v4zm-4-10h4v4h-4v-4zM33 21v-4h4v4h-4zm23 38h-5v-4h1v-1h4v5zm-11 0v-4h4v4h-4zm-6 0v-4h4v4h-4zm13-11h4v4h-4v-4zm-9-18v4h-4v-4h4zM33 59v-4h4v4h-4zm-6 0v-4h4v4h-4zm-7 0v-5h4v1h1v4h-5zm0-11h4v4h-4v-4zm0-6h4v4h-4v-4zm0-6h4v4h-4v-4zm0-6h4v4h-4v-4zm0-6h4v4h-4v-4zm7-3v-4h4v4h-4z"/></symbol><symbol id="si-zfinder-file-html" viewBox="0 0 32 32"><path d="M4.665 3.411l2.063 23.176 9.258 2.574 9.284-2.578 2.065-23.172H4.664zm4.286 5.5l-.068-.763h7.107v2.842h-4.005l.259 2.911h3.746v2.842H9.649L8.951 8.91zm13.567 5.754l-.667 7.483-.043.48-5.822 1.616-5.814-1.616-.398-4.463h2.849l.202 2.267 3.163.854 3.165-.856.329-3.686h-3.485v-2.842h6.587l-.069.763zm.514-5.754l-.129 1.441-.057.639H16V8.149h7.1l-.068.762z"/></symbol><symbol id="si-zfinder-file-illustrator" viewBox="0 0 34 32"><path d="M21.66 10.97c.695 0 1.264-.563 1.264-1.253s-.569-1.253-1.264-1.253c-.695 0-1.264.563-1.264 1.253 0 .695.563 1.253 1.264 1.253zM20.425 12.067h2.442v9.183h-2.442v-9.183zM12.655 18.171h3.304l.893 3.076h2.501L15.721 9.181h-3.036v1.191L9.5 21.247h2.262l.893-3.076zm1.637-6.843l1.221 4.733h-2.441l1.22-4.733z"/><path d="M3.002 2.316v27.007h27.582V2.316H3.002zm25.514 24.881H5.11V4.442h23.406v22.755z"/></symbol><symbol id="si-zfinder-file-java" viewBox="0 0 32 32"><path d="M12.557 23.22s-.982.571.699.765c2.037.232 3.079.199 5.324-.226 0 0 .59.37 1.415.691-5.033 2.157-11.39-.125-7.437-1.23zm-.615-2.815s-1.102.816.581.99c2.176.224 3.895.243 6.869-.33 0 0 .411.417 1.058.645-6.085 1.779-12.863.14-8.508-1.305zm5.185-4.775c1.24 1.428-.326 2.713-.326 2.713s3.149-1.625 1.703-3.661c-1.351-1.898-2.386-2.841 3.221-6.093 0 0-8.801 2.198-4.598 7.042zm6.656 9.672s.727.599-.801 1.062c-2.905.88-12.091 1.146-14.643.035-.917-.399.803-.953 1.344-1.069.564-.122.887-.1.887-.1-1.02-.719-6.594 1.411-2.831 2.021 10.262 1.664 18.706-.749 16.044-1.95zm-10.754-7.813s-4.673 1.11-1.655 1.513c1.274.171 3.814.132 6.181-.066 1.934-.163 3.876-.51 3.876-.51s-.682.292-1.175.629c-4.745 1.248-13.911.667-11.272-.609 2.232-1.079 4.046-.956 4.046-.956zm8.383 4.685c4.824-2.506 2.593-4.915 1.037-4.591-.382.079-.552.148-.552.148s.142-.222.412-.318c3.079-1.083 5.448 3.193-.994 4.887 0 0 .075-.067.097-.126zM18.503 3.337s2.671 2.672-2.534 6.781c-4.174 3.296-.952 5.176-.002 7.323-2.436-2.198-4.224-4.133-3.025-5.934 1.761-2.644 6.638-3.925 5.56-8.17zm-5 25.629c4.63.296 11.74-.164 11.908-2.355 0 0-.324.831-3.826 1.49-3.952.744-8.826.657-11.716.18 0 0 .592.49 3.635.685z"/></symbol><symbol id="si-zfinder-file-javascript" viewBox="0 0 32 32"><path d="M9.633 7.968h3.751v10.514c0 4.738-2.271 6.392-5.899 6.392-.888 0-2.024-.148-2.764-.395l.42-3.036a6.18 6.18 0 0 0 1.925.296c1.58 0 2.567-.716 2.567-3.282V7.968zm7.008 12.785c.987.518 2.567 1.037 4.171 1.037 1.728 0 2.641-.716 2.641-1.826 0-1.012-.79-1.629-2.789-2.32-2.764-.987-4.59-2.517-4.59-4.961 0-2.838 2.394-4.985 6.293-4.985 1.9 0 3.258.37 4.245.839l-.839 3.011a7.779 7.779 0 0 0-3.455-.79c-1.629 0-2.419.765-2.419 1.604 0 1.061.913 1.53 3.085 2.369 2.937 1.086 4.294 2.616 4.294 4.985 0 2.789-2.122 5.158-6.688 5.158-1.9 0-3.776-.518-4.714-1.037l.765-3.085z"/></symbol><symbol id="si-zfinder-file-jpg" baseProfile="full" viewBox="0 0 76.00 76.00"><path d="M19 17.417h22.958l11.875 11.875v20.062A4.752 4.752 0 0 1 57 53.834v4.75a4.75 4.75 0 0 1-4.75 4.75H31.667a4.75 4.75 0 0 1-4.75-4.75H19V17.416zM50.667 33.25H38V20.583H22.167v34.834h4.75v-1.584a4.75 4.75 0 0 1 4.75-4.75h19V33.25zm-9.5-11.875v8.708h8.708l-8.708-8.708zM30.083 57v1.583h1.584V57h-1.584zm1.584 1.583v1.584h3.166v-1.584h-3.166zm3.166 0h1.584V52.25H33.25v1.583h1.583v4.75zM38 60.167h1.583v-1.584h3.167V57h-3.167v-3.167h3.167V52.25H38v7.917zM42.75 57h1.583v-3.167H42.75V57zm9.5 3.167v-4.75h-3.167V57h1.584v1.583H47.5v1.584h4.75zm-4.75-1.584v-4.75h-1.583v4.75H47.5zm0-4.75h4.75V52.25H47.5v1.583z"/></symbol><symbol id="si-zfinder-file-js" viewBox="0 0 32 32"><path d="M9.633 7.968h3.751v10.514c0 4.738-2.271 6.392-5.899 6.392-.888 0-2.024-.148-2.764-.395l.42-3.036a6.18 6.18 0 0 0 1.925.296c1.58 0 2.567-.716 2.567-3.282V7.968zm7.008 12.785c.987.518 2.567 1.037 4.171 1.037 1.728 0 2.641-.716 2.641-1.826 0-1.012-.79-1.629-2.789-2.32-2.764-.987-4.59-2.517-4.59-4.961 0-2.838 2.394-4.985 6.293-4.985 1.9 0 3.258.37 4.245.839l-.839 3.011a7.779 7.779 0 0 0-3.455-.79c-1.629 0-2.419.765-2.419 1.604 0 1.061.913 1.53 3.085 2.369 2.937 1.086 4.294 2.616 4.294 4.985 0 2.789-2.122 5.158-6.688 5.158-1.9 0-3.776-.518-4.714-1.037l.765-3.085z"/></symbol><symbol id="si-zfinder-file-less" viewBox="0 0 32 32"><path d="M8.972 10.374v7.262c0 .874.097 1.003.965 1.252l-.208 1.217c-.463-.105-.909-.152-1.312-.311-.769-.302-.89-.999-.893-1.715-.01-2.053-.004-4.106-.004-6.158v-.406c-.353.027-.678.024-.99.084-.359.068-.564.363-.576.795-.017.602-.006 1.204-.016 1.806a8.12 8.12 0 0 1-.05.826c-.062.515-.299.934-.733 1.215.004.039-.002.068.008.075.651.455.763 1.137.775 1.857.009.572 0 1.145.003 1.717.005.863.229 1.096 1.095 1.151l.14.021v1.126c-.601-.015-1.189-.04-1.727-.328-.599-.321-.801-.877-.83-1.505-.03-.65-.019-1.302-.025-1.953-.001-.118.004-.237-.003-.356-.043-.754-.337-1.086-1.079-1.214-.006-.034-.017-.071-.017-.109-.002-.316-.001-.631-.001-.937l.053-.048c.781-.189 1.037-.507 1.046-1.323.006-.523-.009-1.046.005-1.569a6.93 6.93 0 0 1 .087-1.059c.139-.767.697-1.231 1.59-1.351.264-.035.53-.057.796-.061.62-.009 1.241-.003 1.902-.003zm2.517 6.801c-.092.759.493 1.455 1.305 1.606.768.143 1.509.011 2.276-.229.061.356.128.7.172 1.047.007.053-.084.154-.149.174-1.125.352-2.26.468-3.389.035a2.47 2.47 0 0 1-1.467-1.46c-.425-1.107-.43-2.221.071-3.305.732-1.585 2.556-1.997 3.921-1.362.825.384 1.223 1.098 1.365 1.954.081.49.074.994.11 1.539l-4.214-.001zm2.728-1.07c.017-.924-.507-1.502-1.328-1.497-.785.005-1.423.677-1.403 1.497h2.731zM24.829 22.2v-1.144l.328-.023c.617-.05.892-.324.908-.942.015-.592 0-1.184.011-1.776.005-.285.022-.573.064-.855.073-.488.322-.88.78-1.177-.81-.514-.837-1.299-.845-2.089-.006-.543.006-1.086-.005-1.628-.015-.737-.287-1.006-1.026-1.039l-.204-.014v-1.137c.642.014 1.278.034 1.841.398.524.339.688.876.713 1.454.031.7.015 1.401.028 2.101.004.206.014.418.067.615.135.507.486.769 1.019.787v1.109c-.51.022-.875.265-1.012.773a2.52 2.52 0 0 0-.072.613c-.014.691 0 1.382-.025 2.072-.039 1.095-.616 1.704-1.706 1.831-.28.033-.563.045-.863.069zm.267-8.499l-.263 1.146c-.61-.202-1.211-.341-1.841-.24-.397.064-.631.238-.68.516-.054.301.093.568.457.748.308.152.635.266.952.4.19.081.381.16.566.253.89.444 1.198 1.013 1.096 2.015-.071.702-.577 1.219-1.467 1.415a5.459 5.459 0 0 1-3.168-.23l.232-1.154c.455.104.888.239 1.331.292.366.044.747.009 1.117-.028.244-.024.449-.149.509-.423.062-.282-.018-.527-.256-.672-.292-.178-.612-.312-.922-.461-.372-.178-.76-.328-1.118-.531-1.054-.595-1.044-2.437.128-2.997a3.894 3.894 0 0 1 1.124-.32c.743-.106 1.466.047 2.204.271zm-4.778-.052l-.275 1.2c-.611-.208-1.203-.339-1.825-.244-.416.064-.649.24-.699.532-.05.296.1.556.475.739.327.159.673.28 1.008.421.163.069.326.14.485.219.922.459 1.244 1.078 1.097 2.096-.101.702-.713 1.241-1.615 1.383-.916.144-1.825.12-2.719-.166-.219-.07-.311-.155-.244-.395.08-.282.128-.573.191-.863.452.102.885.238 1.328.29.366.043.747.009 1.117-.028.26-.025.462-.171.517-.454.053-.273-.042-.51-.267-.641-.339-.197-.705-.346-1.059-.516-.328-.157-.668-.294-.982-.474-1.055-.605-1.038-2.433.151-3.024a3.131 3.131 0 0 1 1.664-.316c.543.043 1.081.155 1.653.241z"/></symbol><symbol id="si-zfinder-file-markdown" viewBox="0 0 32 32"><path d="M25.674 9.221H6.326c-.899 0-1.63.731-1.63 1.63V21.72c0 .899.731 1.63 1.63 1.63h19.348c.899 0 1.63-.731 1.63-1.63V10.851c0-.899-.731-1.63-1.63-1.63zm-8.261 11.301l-2.826.003v-4.239l-2.12 2.717-2.12-2.717v4.239H7.521v-8.478h2.826l2.12 2.826 2.12-2.826 2.826-.003v8.478zm4.219.707l-3.512-4.943h2.119v-4.239h2.826v4.239h2.119l-3.553 4.943z"/></symbol><symbol id="si-zfinder-file-multiple" baseProfile="full" viewBox="0 0 76.00 76.00"><path d="M25 16h19.25L57 28.75V54h-4v5H20V20h5v-4zm.333 37.833L25 24h-1v31h25v-1l-23.667-.167zM29 20v30h24V33H40V20H29zm15 1.25V29h7.75L44 21.25z"/></symbol><symbol id="si-zfinder-file-music" baseProfile="full" viewBox="0 0 76.00 76.00"><path d="M26.917 47.5l1.583.15v-23.9L53.833 19v28.5c0 2.623-2.835 4.75-6.333 4.75s-6.333-2.127-6.333-4.75 2.835-4.75 6.333-4.75c.547 0 1.077.052 1.583.15V24.64L33.25 27.61v24.64c0 2.623-2.835 4.75-6.333 4.75s-6.334-2.127-6.334-4.75 2.836-4.75 6.334-4.75z"/></symbol><symbol id="si-zfinder-file-pdf" baseProfile="full" viewBox="0 0 76.00 76.00"><path d="M36.307 56.443c-2.237 2.077-6.224 6.307-3.519 5.574 4.36-2.621 7.083-11.026 9.306-16.646-2.587-5.742-.093-10.198 1.874-10.33 2.397-.16 3.021 4.383 3.021 4.383s-2.656-2.007-3.06-3.231c-.459.114-.95 3.836.404 7.953 1.584-1.98 2.375-3.959 2.375-3.959s1.98 1.98-.99 5.018c.53 1.176 3.422 5.918 4.733 6.776 8.299-2.231 8.695 2.145 8.695 2.145-1.282-1.17-4.117-1.29-7.267-.952 3.974 2.088 7.338 1.397 7.338 1.397 0 1.635-5.384 3.429-9.357-.336-4.162.653-8.412 2.655-10.094 3.16-4.494 7.853-9.409 7.23-10.078 5.355-1.188-3.167 6.619-6.307 6.619-6.307zm7.688-9.624l-2.94 8.103c1.726-.495 3.633-1.443 7.053-2.114C47 52 46 51 43.995 46.818zM20 17h23.25L56 29.75V50l-4 .25V34H39V21H24v34h10.5L30 59H20V17zm20 42v-.5l9-3 7 3.5H40zm3-36.75V30h7.75L43 22.25z"/></symbol><symbol id="si-zfinder-file-photoshop" viewBox="0 0 34 32"><path d="M3.556 2.845v27.071h27.53V2.845H3.556zm25.34 24.918H5.745V4.998h23.151v22.765z"/><path d="M16.555 10.442c-.693-.599-1.726-.939-3.173-.939-1.433 0-3.173.046-3.173.046v11.103h2.326v-3.568s.407-.005.847-.023c1.593-.067 2.526-.549 3.327-1.364.616-.631.955-1.53.955-2.627s-.447-2.062-1.109-2.628zm-3.235 4.673c-.375.004-.533.016-.786-.008v-3.834s.493-.017.971 0c1.198.044 1.833.89 1.833 1.921 0 1.148-.77 1.906-2.018 1.921zM22.205 15.455c-1.005-.356-1.324-.559-1.324-.949 0-.423.352-.677.972-.677.703 0 1.767.454 2.136.658v-1.871c-.502-.254-1.265-.566-2.22-.566-2.027 0-3.334 1.169-3.334 2.728-.017.965.636 1.655 2.329 2.231.955.322 1.206.767 1.206 1.191s-.318.695-1.089.695c-.754 0-1.86-.431-2.329-.718v1.847c.62.338 1.518.659 2.329.684 2.363.074 3.551-1.152 3.551-2.694-.017-1.22-.67-2.016-2.228-2.558z"/></symbol><symbol id="si-zfinder-file-png" baseProfile="full" viewBox="0 0 76.00 76.00"><path d="M19 17.417h22.958l11.875 11.875v20.062A4.752 4.752 0 0 1 57 53.834v4.75a4.75 4.75 0 0 1-4.75 4.75H28.5a4.75 4.75 0 0 1-4.75-4.75H19V17.416zM50.667 33.25H38V20.583H22.167v34.834h1.583v-1.584a4.75 4.75 0 0 1 4.75-4.75h22.167V33.25zm-9.5-11.875v8.708h8.708l-8.708-8.708zM28.5 60.167h1.583v-1.584h3.167V57h1.583v-3.167H33.25V52.25H28.5v7.917zM33.25 57h-3.167v-3.167h3.167V57zm19 3.167v-4.75h-3.167V57h1.584v1.583H47.5v-4.75h4.75V52.25H47.5v1.583h-1.583v4.75H47.5v1.584h4.75zM42.75 57h-1.583v-1.583h-1.584v-1.584H38V52.25h-1.583v7.917H38v-4.75h1.583V57h1.584v1.583h1.583v1.584h1.583V52.25H42.75V57z"/></symbol><symbol id="si-zfinder-file-powerpoint" baseProfile="full" viewBox="0 0 76.00 76.00"><path d="M26 53v-3h7v3h-7zm0-5v-3h8v3h-8zm0-5v-3h10v3H26zm-6-26h23.25L56 29.75v10.914a12.99 12.99 0 0 0-4-2.364V34H39V21H24v34h11.3a12.99 12.99 0 0 0 2.364 4H20V17zm23 5.25V30h7.75L43 22.25zM47.5 39c1.676 0 3.269.359 4.705 1.004L47.5 50.5l11.252 2.387C57.653 58.093 53.032 62 47.5 62 41.149 62 36 56.851 36 50.5S41.149 39 47.5 39z"/></symbol><symbol id="si-zfinder-file-python" viewBox="0 0 32 32"><path d="M13.275 15.88h5.417c1.508 0 2.712-1.241 2.712-2.756V7.96c0-1.47-1.24-2.574-2.712-2.819-.932-.155-1.898-.226-2.825-.221s-1.813.083-2.592.221c-2.295.405-2.712 1.254-2.712 2.819v2.067h5.423v.689H8.527c-1.576 0-2.956.947-3.388 2.75-.498 2.066-.52 3.355 0 5.512.385 1.606 1.306 2.75 2.882 2.75h1.865V19.25c0-1.79 1.549-3.369 3.388-3.369zm-.342-7.231a1.024 1.024 0 0 1-1.018-1.03c0-.572.455-1.037 1.018-1.037.56 0 1.018.465 1.018 1.037 0 .57-.457 1.03-1.018 1.03zm13.893 4.816c-.389-1.569-1.133-2.75-2.712-2.75h-2.035v2.408c0 1.867-1.583 3.439-3.388 3.439h-5.417c-1.484 0-2.712 1.27-2.712 2.756v5.164c0 1.47 1.278 2.334 2.712 2.756 1.717.505 3.363.596 5.417 0 1.365-.395 2.712-1.191 2.712-2.756v-2.067h-5.417v-.689h8.129c1.576 0 2.163-1.099 2.712-2.75.566-1.699.542-3.332 0-5.512zm-7.793 10.329c.562 0 1.018.461 1.018 1.03 0 .572-.456 1.037-1.018 1.037a1.03 1.03 0 0 1-1.018-1.037c0-.57.457-1.03 1.018-1.03z"/></symbol><symbol id="si-zfinder-file-ruby" viewBox="0 0 32 32"><path d="M6.248 16.554c.132-.413.289-1.255.655-1.995 1.781-3.594 4.536-6.208 8.215-7.796.71-.306 1.555-.404 2.339-.408.98-.005 1.637.677 1.723 1.666.045.515.039 1.087-.138 1.561-1.743 4.662-5.032 7.784-9.656 9.538-.18.068-.381.086-.575.112-1.574.216-2.587-.676-2.563-2.678zm12.101-3.455l7.702-.54c-.192-.183-.3-.303-.425-.403-2.292-1.838-4.59-3.668-6.873-5.517-.226-.183-.366-.471-.668-.871.981 0 1.774-.009 2.567.002.957.014 1.937-.079 2.867.093 2.011.372 3.084 1.669 3.046 3.713-.035 1.916-.233 3.829-.375 5.742-.217 2.929-.445 5.858-.671 8.786-.039.505-.086 1.01-.137 1.61-1.063-.947-2.08-1.852-3.095-2.758-.131-.117-.24-.268-.385-.361-1.241-.79-1.759-1.968-2.041-3.376-.368-1.84-.907-3.646-1.371-5.467-.052-.204-.09-.412-.142-.655zM8.765 24.301c.547-.076 1.059-.108 1.547-.234.192-.049.415-.283.477-.479.46-1.455.882-2.923 1.317-4.385.038-.128.091-.252.161-.443l8.022 2.568a26.406 26.406 0 0 1-4.602 3.701l8.991.687.001.115c-.646.046-1.292.094-1.938.137-3.812.251-7.623.501-11.435.75-.606.04-1.213.106-1.818.095-2.566-.047-4.02-1.453-4.053-4.027-.019-1.446.13-2.894.222-4.34.007-.109.163-.209.25-.313.129.115.317.205.38.349.766 1.776 1.514 3.56 2.267 5.341.061.143.126.284.211.478z"/></symbol><symbol id="si-zfinder-file-sass" viewBox="0 0 32 32"><path d="M31.641 21.161c-.109-.911-.578-1.618-1.286-2.172-.82-.641-1.78-.905-2.803-.947a6.327 6.327 0 0 0-2.437.376c-.224.081-.444.177-.67.268-.03-.055-.062-.107-.088-.162-.232-.474-.512-.927-.573-1.47-.044-.386-.098-.772-.006-1.153.088-.367.204-.728.312-1.091.056-.187.017-.291-.161-.375a.724.724 0 0 0-.197-.065 3.04 3.04 0 0 0-1.293.096c-.15.044-.259.128-.292.294-.019.095-.058.186-.084.28-.111.391-.189.789-.368 1.161-.449.934-.96 1.832-1.485 2.724-.057.096-.116.191-.188.308-.184-.385-.38-.73-.44-1.136-.067-.458-.12-.915-.006-1.37.085-.339.196-.672.298-1.006.049-.159.026-.242-.118-.326a.696.696 0 0 0-.237-.092 2.904 2.904 0 0 0-1.338.11c-.136.044-.207.132-.249.272-.122.413-.226.836-.397 1.229a429.556 429.556 0 0 1-2.12 4.753c-.149.33-.323.649-.491.97-.043.082-.104.153-.157.23-.043-.05-.059-.085-.059-.119.001-.203-.023-.413.016-.609.117-.594.252-1.186.395-1.775.117-.486.254-.968.385-1.452.044-.162.045-.313-.072-.449-.195-.228-.603-.278-.845-.102-.026.019-.057.032-.107.061.009-.077.014-.125.021-.173.051-.37.061-.738-.04-1.103-.127-.454-.45-.715-.921-.701a1.98 1.98 0 0 0-.653.124c-.855.335-1.512.928-2.071 1.642a.64.64 0 0 1-.189.163c-.723.401-1.449.797-2.174 1.195l-.807.442c-.216-.207-.413-.421-.637-.603-.682-.556-1.375-1.098-2.061-1.648-.608-.487-1.198-.995-1.649-1.64-.336-.48-.552-1.005-.572-1.599-.026-.756.188-1.447.573-2.091.493-.823 1.164-1.483 1.903-2.082.781-.633 1.626-1.17 2.502-1.66 1.225-.686 2.486-1.293 3.837-1.694 1.386-.411 2.791-.646 4.241-.482.57.064 1.123.195 1.632.474.389.213.708.492.857.929.146.43.142.865.04 1.301-.206.883-.69 1.612-1.299 2.263-.998 1.067-2.216 1.793-3.588 2.273a9.843 9.843 0 0 1-2.441.521c-.682.057-1.35-.003-1.996-.241a2.597 2.597 0 0 1-1.1-.747c-.054-.063-.122-.13-.222-.072-.098.057-.115.151-.082.245.055.157.105.319.191.459.214.351.527.606.871.825.661.42 1.399.561 2.165.594 1.162.05 2.296-.123 3.413-.435 1.596-.445 2.983-1.231 4.096-2.471.927-1.032 1.588-2.198 1.73-3.605.069-.687-.004-1.36-.326-1.986-.349-.679-.903-1.147-1.566-1.494-.964-.506-2.006-.705-3.081-.763H14a12.844 12.844 0 0 0-3.786.782c-.926.337-1.835.717-2.717 1.157-1.921.96-3.71 2.108-5.179 3.699-.732.793-1.352 1.663-1.708 2.693-.104.302-.168.622-.243.934-.006.026.023.051-.041.077v.44c.064.113.071.225.1.338.189.733.578 1.363 1.06 1.937.687.818 1.518 1.476 2.38 2.096.747.537 1.505 1.062 2.255 1.595.129.091.248.197.388.309-.12.065-.221.122-.325.175-.99.502-1.942 1.065-2.82 1.747-.529.411-1.041.848-1.402 1.418-.581.918-.787 1.896-.354 2.94.127.305.32.569.592.763a.863.863 0 0 0 .29.15c.264.062.534.103.802.152h.758a4.714 4.714 0 0 0 2.291-.838c1.078-.744 1.804-1.741 2.117-3.022.227-.93.236-1.862-.031-2.788-.025-.086-.056-.17-.089-.253s-.071-.164-.116-.268l1.719-.989.026.022c-.031.102-.064.204-.093.308-.204.746-.34 1.505-.291 2.279.052.825.282 1.597.765 2.287.39.558 1.321.578 1.736.019a4 4 0 0 0 .397-.628c.28-.579.54-1.168.807-1.753l.047-.107c-.019.277-.042.52-.052.764-.016.38.006.758.136 1.12.111.31.3.541.655.581.242.028.436-.083.614-.224.279-.22.505-.491.673-.8.475-.873.963-1.74 1.394-2.635.466-.968.873-1.964 1.306-2.948.024-.054.045-.109.072-.175.102.402.174.795.305 1.168.152.432.341.854.547 1.264.097.194.086.32-.049.482-.564.68-1.118 1.368-1.673 2.056a4.542 4.542 0 0 0-.347.472.915.915 0 0 0-.12.341.434.434 0 0 0 .346.493c.219.047.453.065.677.048a3.972 3.972 0 0 0 2.099-.789c.805-.597 1.064-1.41.869-2.375-.053-.262-.146-.517-.237-.769-.041-.114-.043-.194.031-.3.644-.919 1.194-1.895 1.705-2.892a.613.613 0 0 1 .076-.121c.166.863.415 1.694.862 2.448-.228.22-.454.419-.658.639-.45.483-.84 1.009-1.043 1.649-.087.276-.155.556-.116.852.061.458.436.755.886.651.963-.223 1.795-.677 2.403-1.481.409-.541.446-1.145.275-1.778-.047-.172-.103-.341-.163-.539.238-.074.47-.162.709-.217 1.245-.284 2.476-.234 3.675.215.7.262 1.266.702 1.601 1.393.41.845.183 1.646-.613 2.18-.074.05-.159.089-.221.151a.216.216 0 0 0-.051.167c.005.031.087.069.133.069.262-.002.474-.139.678-.28.511-.353.848-.829.928-1.454.002-.018-.024-.035.04-.052v-.416c-.064-.017-.037-.034-.039-.052zm-24.355 1.69c-.083 1.115-.588 2.019-1.414 2.75-.465.412-.997.705-1.618.808-.225.037-.455.046-.674-.047-.311-.133-.381-.409-.387-.704-.009-.469.155-.893.38-1.296.294-.526.725-.927 1.185-1.301.725-.59 1.512-1.09 2.317-1.561.013-.008.029-.012.061-.025.124.46.184.914.149 1.377zm6.29-4.845a8.45 8.45 0 0 1-.236 1.057c-.36 1.194-.821 2.352-1.32 3.493-.092.211-.226.404-.343.604-.018.031-.045.058-.071.084-.144.143-.282.135-.355-.052a3.93 3.93 0 0 1-.182-.679c-.03-.154-.023-.316-.032-.474.01-1.123.352-2.145.934-3.095.24-.392.501-.765.899-1.014a1.62 1.62 0 0 1 .399-.177c.212-.06.343.039.308.252zm4.291 5.467l1.542-1.801c.064.669-1.072 2.004-1.542 1.801zm4.926-1.211c-.109.062-.228.108-.34.165-.102.053-.136 0-.139-.088a.61.61 0 0 1 .023-.18 3.866 3.866 0 0 1 1.162-1.871c.008-.008.021-.011.04-.021a1.651 1.651 0 0 1-.747 1.995z"/></symbol><symbol id="si-zfinder-file-script" viewBox="0 0 14 16"><path d="M7 10h4v1H7v-1zm-3 1l3-3-3-3-.75.75L5.5 8l-2.25 2.25L4 11zm10-8v10c0 .55-.45 1-1 1H1c-.55 0-1-.45-1-1V3c0-.55.45-1 1-1h12c.55 0 1 .45 1 1zm-1 0H1v10h12V3z"/></symbol><symbol id="si-zfinder-file-symlink" viewBox="0 0 12 16"><path d="M8.5 1H1c-.55 0-1 .45-1 1v12c0 .55.45 1 1 1h10c.55 0 1-.45 1-1V4.5L8.5 1zM11 14H1V2h7l3 3v9zM6 4.5l4 3-4 3v-2c-.98-.02-1.84.22-2.55.7-.71.48-1.19 1.25-1.45 2.3.02-1.64.39-2.88 1.13-3.73.73-.84 1.69-1.27 2.88-1.27v-2H6z"/></symbol><symbol id="si-zfinder-file-text" baseProfile="full" viewBox="0 0 76.00 76.00"><path d="M20 17h24.25L56 28.75V59H20V17zm4 4v34h28V33H40V21H24zm20 1.25V29h6.75L44 22.25zM26 23h12v5H26v-5zm0 7h12v3H26v-3zm0 5h24v3H26v-3zm0 5h24v3H26v-3zm0 5h24v3H26v-3zm0 5h24v3H26v-3z"/></symbol><symbol id="si-zfinder-file-video" baseProfile="full" viewBox="0 0 76.00 76.00"><path d="M19 34.833h3.167v7.917H19v-7.917zm3.958-.791H49.48V38h1.188L57 31.667V52.25l-6.333-6.333h-1.188v6.333H22.96V34.042zm6.334-11.875a5.542 5.542 0 1 1 0 11.083 5.542 5.542 0 0 1 0-11.083zm12.666 0a5.542 5.542 0 1 1 0 11.083 5.542 5.542 0 0 1 0-11.083z"/></symbol><symbol id="si-zfinder-file-word" baseProfile="full" viewBox="0 0 76.00 76.00"><path d="M38 62l-7-21h-2v-3h8v3h-2l4.367 13.243L45.25 38h2.5l5.774 16.243L57 41h-2v-3h8v3h-2l-6 21h-2l-6.663-16.866L40 62h-2zM17 17h23.25L53 29.75V49l-4-11v-4H36V21H21v34h13.25l1.5 4H17V17zm25.5 42l1.5-4h5l1.5 4h-8zM40 22.25V30h7.75L40 22.25z"/></symbol><symbol id="si-zfinder-file-xml" baseProfile="full" viewBox="0 0 76.00 76.00"><path d="M48 61.25L36.5 50.5 48 39.75v5.5l-6.25 5.25L48 55.75v5.5zm4 0v-5.5l6.25-5.25L52 45.25v-5.5L63.5 50.5 52 61.25zM20 17h22.25L55 29.75V41.5l-3-3V34H38V21H24v34h15.5l4.25 4H20V17zm22 5.25V30h7.75L42 22.25z"/></symbol><symbol id="si-zfinder-file-zip" viewBox="0 0 12 16"><path d="M8.5 1H1a1 1 0 0 0-1 1v12a1 1 0 0 0 1 1h10a1 1 0 0 0 1-1V4.5L8.5 1zM11 14H1V2h3v1h1V2h3l3 3v9zM5 4V3h1v1H5zM4 4h1v1H4V4zm1 2V5h1v1H5zM4 6h1v1H4V6zm1 2V7h1v1H5zM4 9.28A2 2 0 0 0 3 11v1h4v-1a2 2 0 0 0-2-2V8H4v1.28zM6 10v1H4v-1h2z"/></symbol><symbol id="si-zfinder-film" baseProfile="full" viewBox="0 0 76.00 76.00"><path d="M19 19h38v38H19V19zm7.917 4.75v12.667h22.166V23.75H26.917zm0 15.833V52.25h22.166V39.583H26.917zm-3.959-17.416a2.375 2.375 0 1 0 0 4.75 2.375 2.375 0 0 0 0-4.75zm0 26.916a2.375 2.375 0 1 0 0 4.75 2.375 2.375 0 0 0 0-4.75zm0-6.729a2.375 2.375 0 1 0 0 4.75 2.375 2.375 0 0 0 0-4.75zm0-6.729a2.375 2.375 0 1 0 0 4.75 2.375 2.375 0 0 0 0-4.75zm0-6.73a2.375 2.375 0 1 0 0 4.75 2.375 2.375 0 0 0 0-4.75zm30.084-6.728a2.375 2.375 0 1 0 0 4.75 2.375 2.375 0 0 0 0-4.75zm0 26.916a2.375 2.375 0 1 0 0 4.75 2.375 2.375 0 0 0 0-4.75zm0-6.729a2.375 2.375 0 1 0 0 4.75 2.375 2.375 0 0 0 0-4.75zm0-6.729a2.375 2.375 0 1 0 0 4.75 2.375 2.375 0 0 0 0-4.75zm0-6.73a2.375 2.375 0 1 0 0 4.75 2.375 2.375 0 0 0 0-4.75z"/></symbol><symbol id="si-zfinder-folder-default" viewBox="0 0 48 48"><path d="M20 8H8c-2.21 0-3.98 1.79-3.98 4L4 36c0 2.21 1.79 4 4 4h32c2.21 0 4-1.79 4-4V16c0-2.21-1.79-4-4-4H24l-4-4z"/><path d="M0 0h48v48H0z" fill="none"/></symbol><symbol id="si-zfinder-folder-open" viewBox="0 0 48 48"><path d="M0 0h48v48H0z" fill="none"/><path d="M40 12H24l-4-4H8c-2.21 0-3.98 1.79-3.98 4L4 36c0 2.21 1.79 4 4 4h32c2.21 0 4-1.79 4-4V16c0-2.21-1.79-4-4-4zm0 24H8V16h32v20z"/></symbol><symbol id="si-zfinder-folder-shared" viewBox="0 0 48 48"><path d="M40 12H24l-4-4H8c-2.21 0-3.98 1.79-3.98 4L4 36c0 2.21 1.79 4 4 4h32c2.21 0 4-1.79 4-4V16c0-2.21-1.79-4-4-4zm-10 6c2.21 0 4 1.79 4 4s-1.79 4-4 4-4-1.79-4-4 1.79-4 4-4zm8 16H22v-2c0-2.67 5.33-4 8-4s8 1.33 8 4v2z"/><path d="M0 0h48v48H0z" fill="none"/></symbol><symbol id="si-zfinder-folder-special" viewBox="0 0 48 48"><path fill="none" d="M0 0h48v48H0V0z"/><path d="M40 12H24l-4-4H8c-2.2 0-4 1.8-4 4v24c0 2.2 1.8 4 4 4h32c2.2 0 4-1.8 4-4V16c0-2.2-1.8-4-4-4zm-4.13 22L30 30.56 24.13 34l1.56-6.66-5.18-4.48 6.83-.59L30 16l2.67 6.28 6.83.59-5.18 4.48L35.87 34z"/></symbol><symbol id="si-zfinder-fullscreen" viewBox="0 0 48 48"><path d="M0 0h48v48H0z" fill="none"/><path d="M14 28h-4v10h10v-4h-6v-6zm-4-8h4v-6h6v-4H10v10zm24 14h-6v4h10V28h-4v6zm-6-24v4h6v6h4V10H28z"/></symbol><symbol id="si-zfinder-fullscreen-exit" viewBox="0 0 48 48"><path d="M0 0h48v48H0z" fill="none"/><path d="M10 32h6v6h4V28H10v4zm6-16h-6v4h10V10h-4v6zm12 22h4v-6h6v-4H28v10zm4-22v-6h-4v10h10v-4h-6z"/></symbol><symbol id="si-zfinder-github-octocat" baseProfile="full" viewBox="0 0 76.00 76.00"><path d="M32.415 38.172c0 1.76-.992 3.186-2.214 3.186-1.223 0-2.214-1.426-2.214-3.186s.99-3.188 2.214-3.188c1.222 0 2.214 1.427 2.214 3.188zm17.815 0c0 1.76-.991 3.186-2.214 3.186-1.222 0-2.214-1.426-2.214-3.186s.992-3.188 2.214-3.188c1.223 0 2.214 1.427 2.214 3.188zm-10.565 4.185a.83.83 0 1 1-1.661 0 .83.83 0 0 1 1.661 0zm-2.765 2.1a.267.267 0 0 1 .503-.178 1.514 1.514 0 0 0 1.425 1.008c.638 0 1.21-.405 1.424-1.008a.266.266 0 1 1 .503.178 2.05 2.05 0 0 1-1.927 1.364 2.05 2.05 0 0 1-1.928-1.364zm35.089-3.466c-5.903-1.18-9.326-1.182-12.95-1.027-.132.438-.28.865-.45 1.274 3.578.105 7.272 1.602 13.334 3.313l-.072.256c-6.097-1.72-9.833-3.207-13.375-3.304-1.788 4.057-5.669 6.668-13.755 7.47 1.387.941 2.806 2.726 2.806 6.094v8.64s.178 2.137 2.137 2.85c0 0 1.157.8-.09 1.246 0 0-5.432.445-5.432-4.008v-6.59s.215-2.43-1.068-3.429v10.732s.088 2.582 1.424 3.562c0 0 .89 1.603-1.068 1.158 0 0-3.74-.534-3.919-4.898l-.085-10.955h-.899l-.085 10.955c-.178 4.364-3.919 4.898-3.919 4.898-1.96.445-1.068-1.158-1.068-1.158 1.336-.98 1.424-3.562 1.424-3.562V53.683c-1.283.908-1.068 3.522-1.068 3.522v6.59c0 4.453-5.433 4.008-5.433 4.008-1.247-.445-.089-1.247-.089-1.247 1.96-.712 2.138-2.85 2.138-2.85v-6.044c-8.415 1.877-10.158-3.973-10.158-3.973-1.336-3.43-3.274-4.344-3.274-4.344-2.695-1.848.2-1.804.2-1.804 2.985.223 4.544 3.074 4.544 3.074 2.785 4.791 7.428 3.079 8.894 2.378.446-2.08 1.543-3.31 2.62-4.033-7.583-.818-11.845-3.42-14.007-7.45-3.584.11-9.816 2.142-15.783 3.825l-.073-.257c5.921-1.67 12.099-3.714 15.717-3.83-.211-.42-.4-.853-.57-1.299-3.659-.139-9.509-.626-15.212.514l-.053-.262c5.67-1.134 11.484-.657 15.165-.523-.769-2.157-1.084-4.638-1.084-7.404 0-3.663 1.324-6.651 3.493-8.992-.346-.849-1.488-4.265.358-8.88 0 0 2.827-.895 9.232 3.475 2.687-.737 5.567-1.1 8.418-1.1 2.591 0 5.178.3 7.61.907 6.205-4.153 8.948-3.282 8.948-3.282 1.556 3.89.99 6.928.566 8.295 2.425 2.42 3.919 5.601 3.919 9.577 0 2.773-.18 5.259-.78 7.42 3.65-.153 7.045-.14 12.925 1.035l-.053.262zm-20.002-8.904c-2.874-2.601-7.712-1.2-13.2-1.2-5.508 0-10.365-1.387-13.234 1.232-1.72 1.571-2.726 3.465-2.726 5.504 0 8.518 7.146 9.846 15.96 9.846 8.815 0 15.96-.26 15.96-9.846 0-2.052-1.018-3.958-2.76-5.536z"/></symbol><symbol id="si-zfinder-globe" baseProfile="full" viewBox="0 0 76.00 76.00"><path d="M38 15.833c12.242 0 22.167 9.925 22.167 22.167S50.242 60.167 38 60.167 15.833 50.242 15.833 38 25.758 15.833 38 15.833zM38 19c-.961 0-1.906.071-2.828.21-.198.43-.339.901-.339 1.373 0 1.584-1.583-1.583-3.166 1.584-1.584 3.166 0 0 0 3.166 0 1.584-2.292.438-1.584.792 1.584.792 1.584.792 0 2.375 0 0-3.166-1.583-3.166 0s-1.584 1.583-3.167 1.583c-1.583 0 0 3.167-1.583 3.167-1.218 0-.563-1.872-1.635-2.737-.407.949-.74 1.938-.99 2.96 1.068.955 1.247 4.732 2.625 6.11 1.583-1.583 1.583 0 3.166 0 1.584 0 1.584 0 2.375 1.584 1.584 0 2.375 1.583 3.959 3.166 1.583 1.584 4.75 1.584 4.75 3.167 0 1.583-1.584 0-1.584 3.167 0 1.583 0 1.583-1.583 1.583-.997 0-1.994 1.883-2.596 3.278A18.942 18.942 0 0 0 38 57a18.942 18.942 0 0 0 13.574-5.706l-.907-1.815s1.979-3.166.395-4.75c-1.583-1.583-1.583-3.166-1.583-3.166s-3.166 3.166-4.75 1.583c-1.583-1.584-1.583 0-3.166-3.167-1.584-3.166 1.583-4.75 1.583-4.75s0-3.166 1.583-3.166c1.584 0 3.167-3.167 6.334 0 0 0 1.83-1.22 4.418-1.519a19.013 19.013 0 0 0-3.28-5.166 1.902 1.902 0 0 1-1.139.351c-1.583 0 1.584 3.167 0 3.167-1.583 0-1.583-1.584-3.166-1.584-1.584 0-1.584 1.584-3.167 3.167-1.583 1.584 0 0-1.583-1.583-1.584-1.584 3.166 0 1.583-1.584-1.583-1.583 1.584-1.583 1.584-3.166 0-1.242 1.947-1.51 2.788-1.568-.914-.659-1.889-1.238-2.788-1.599 1.583 1.584-1.584 3.167-3.167 3.167-1.488 0-.18-2.794-.017-4.445A19.017 19.017 0 0 0 38 19zM19 38a18.951 18.951 0 0 0 6.253 14.09l-1.503-3.007c-1.583 0-2.375-3.562-2.375-5.145 0-1.271-.51-2.287.107-3.457-2.234-2.243-.899-1.027-.899-2.481 0-.754-.717-1.508-1.47-2.09A19.192 19.192 0 0 0 19 38z"/></symbol><symbol id="si-zfinder-home" baseProfile="full" viewBox="0 0 76.01 76.01"><path d="M24.003 56.008V38.005l-2 2-3-5 19.002-15.002 7.001 5.527v-3.777l4-.75v7.685l8.002 6.317-3 5-2-2v18.003H24.002zM38.005 26.92l-11.001 9.085v17.002h6V42.006h10.002v11.001h6V36.005l-11-9.085z"/></symbol><symbol id="si-zfinder-image" baseProfile="full" viewBox="0 0 76.00 76.00"><path d="M17 20h42v36H17V20zm3 3v30h36V23H20zm4 28l6.083-6.667L33.25 47.5l12.667-12.667 4.75 4.75L54 36v15H24zm6.083-24.083a6.333 6.333 0 0 1-6.333 6.333c-.547 0-1.244-.12-1.75-.25v-8h7.667c.13.506.416 1.37.416 1.917z"/></symbol><symbol id="si-zfinder-image-multiple" baseProfile="full" viewBox="0 0 76.00 76.00"><path d="M20 23h42v36H20V23zm3 3v30h36V26H23zm4 28l6.25-6.5 3.167 3.167L49.083 38l4.75 4.75L57 39v15H27zm6.25-23.917a6.333 6.333 0 0 1-6.333 6.334c-.547 0-1.41-.287-1.917-.417v-8h7.667c.13.506.583 1.537.583 2.083zM59 22H19v34h-2V20h42v2zm-3-3H16v34h-2V17h42v2z"/></symbol><symbol id="si-zfinder-information" baseProfile="full" viewBox="0 0 76.00 76.00"><path d="M31.667 30.083H42.75V52.25h3.166V57h-14.25v-4.75h3.167V34.834h-3.166v-4.75zM38.792 19a3.958 3.958 0 1 1 0 7.917 3.958 3.958 0 0 1 0-7.917z"/></symbol><symbol id="si-zfinder-information-circle" baseProfile="full" viewBox="0 0 76.00 76.00"><path d="M38 19c10.493 0 19 8.507 19 19s-8.507 19-19 19-19-8.507-19-19 8.507-19 19-19zm-4.75 14.25v3.167h3.167V47.5H33.25v3.167h11.083V47.5h-3.166V33.25H33.25zm5.542-7.917a2.375 2.375 0 1 0 0 4.75 2.375 2.375 0 0 0 0-4.75z"/></symbol><symbol id="si-zfinder-list" baseProfile="full" viewBox="0 0 76.00 76.00"><path d="M19 23h8v8h-8v-8zm0 11h8v8h-8v-8zm12-11h26v8H31v-8zM19 45h8v8h-8v-8zm12-11h26v8H31v-8zm0 11h26v8H31v-8z"/></symbol><symbol id="si-zfinder-list-select" baseProfile="full" viewBox="0 0 76.00 76.00"><path d="M21 36h4v4h-4v-4zm-2-13h8v8h-8v-8zm0 11h8v8h-8v-8zm12-11h26v8H31v-8zM19 45h8v8h-8v-8zm12-11h26v8H31v-8zm0 11h26v8H31v-8zM20 35v6h6v-6h-6z"/></symbol><symbol id="si-zfinder-monitor" baseProfile="full" viewBox="0 0 76.00 76.00"><path d="M20 23h36a2 2 0 0 1 2 2v21a2 2 0 0 1-2 2H41v5h4a2 2 0 0 1 2 2v2H29v-2a2 2 0 0 1 2-2h4v-5H20a2 2 0 0 1-2-2V25a2 2 0 0 1 2-2zm1 3v19h34V26H21z"/></symbol><symbol id="si-zfinder-more-horizontal" viewBox="0 0 48 48"><path d="M0 0h48v48H0z" fill="none"/><path d="M12 20c-2.21 0-4 1.79-4 4s1.79 4 4 4 4-1.79 4-4-1.79-4-4-4zm24 0c-2.21 0-4 1.79-4 4s1.79 4 4 4 4-1.79 4-4-1.79-4-4-4zm-12 0c-2.21 0-4 1.79-4 4s1.79 4 4 4 4-1.79 4-4-1.79-4-4-4z"/></symbol><symbol id="si-zfinder-more-vertical" viewBox="0 0 48 48"><path d="M0 0h48v48H0z" fill="none"/><path d="M24 16c2.21 0 4-1.79 4-4s-1.79-4-4-4-4 1.79-4 4 1.79 4 4 4zm0 4c-2.21 0-4 1.79-4 4s1.79 4 4 4 4-1.79 4-4-1.79-4-4-4zm0 12c-2.21 0-4 1.79-4 4s1.79 4 4 4 4-1.79 4-4-1.79-4-4-4z"/></symbol><symbol id="si-zfinder-move-file" baseProfile="full" viewBox="0 0 76.00 76.00"><path d="M40 50h12.5l-5-5h5l7 7-7 7h-5l5-5H40v-4zM24 19h16v12h12v13h-6.5l5 5H39v6h11.5l-2 2H24V19zm17 11V19l11 11H41z"/></symbol><symbol id="si-zfinder-qrcode" baseProfile="full" viewBox="0 0 76.00 76.00"><path d="M22.167 22.167h3.166v3.166h-3.166v-3.166zM19 19h9.5v9.5H19V19zm1.583 1.584v6.333h6.334v-6.334h-6.334zm30.084 1.583h3.166v3.166h-3.166v-3.166zM47.5 19H57v9.5h-9.5V19zm1.583 1.584v6.333h6.334v-6.334h-6.334zM22.167 50.666h3.166v3.166h-3.166v-3.166zM19 47.5h9.5V57H19v-9.5zm1.583 1.583v6.334h6.334v-6.334h-6.334zM19 31.667h3.167v3.166h3.166V38h6.334v-3.166h-6.334v-3.167h6.334v3.166H38v6.334h-3.167v3.166h6.334v6.334H38v3.166h3.166V57H38v-3.167h-3.167V57h-3.166v-9.5h3.166v3.167H38V47.5h-3.167v-3.167H28.5v-3.166h-6.333v3.166H19v-3.166h3.167v-6.334H19v-3.166zM34.833 38h-3.166v3.167h3.166V38zm6.334-3.166h3.166v-3.167H38V28.5h-3.167v3.167h-3.166V28.5h3.166v-3.167h-3.166V19h3.166v6.333H38v-3.166h3.167V19h3.166v6.333h-3.166V28.5h3.166v3.167H47.5V38h3.167v3.167h3.166V47.5H57v6.333h-3.167v-3.166h-3.166V57h-6.334v-3.167H47.5v-3.166h-3.167V47.5H47.5v3.167h3.167v-6.334H47.5V38h-3.167v6.333h-3.166v-9.5zm9.5-3.167h3.166v3.166H57V38h-6.333v-6.333z"/></symbol><symbol id="si-zfinder-refresh" viewBox="0 0 48 48"><path d="M35.3 12.7C32.41 9.8 28.42 8 24 8 15.16 8 8.02 15.16 8.02 24S15.16 40 24 40c7.45 0 13.69-5.1 15.46-12H35.3c-1.65 4.66-6.07 8-11.3 8-6.63 0-12-5.37-12-12s5.37-12 12-12c3.31 0 6.28 1.38 8.45 3.55L26 22h14V8l-4.7 4.7z"/><path d="M0 0h48v48H0z" fill="none"/></symbol><symbol id="si-zfinder-rename" viewBox="0 0 16 16"><path d="M8.5 12h-6a.5.5 0 0 1-.5-.5v-6a.5.5 0 0 1 .5-.5h6a.5.5 0 0 1 0 1H3v5h5.5a.5.5 0 0 1 0 1zm-4-4a.5.5 0 0 0 0 1h3a.5.5 0 0 0 0-1h-3zm8 6H11V3h1.5a.5.5 0 0 0 0-1h-4a.5.5 0 0 0 0 1H10v11H8.5a.5.5 0 0 0 0 1h4a.5.5 0 0 0 0-1zm1-9h-1a.5.5 0 0 0 0 1h.5v5h-.5a.5.5 0 0 0 0 1h1a.5.5 0 0 0 .5-.5v-6a.5.5 0 0 0-.5-.5z"/></symbol><symbol id="si-zfinder-search" viewBox="0 0 48 48"><path d="M31 28h-1.59l-.55-.55C30.82 25.18 32 22.23 32 19c0-7.18-5.82-13-13-13S6 11.82 6 19s5.82 13 13 13c3.23 0 6.18-1.18 8.45-3.13l.55.55V31l10 9.98L40.98 38 31 28zm-12 0c-4.97 0-9-4.03-9-9s4.03-9 9-9 9 4.03 9 9-4.03 9-9 9z"/><path d="M0 0h48v48H0z" fill="none"/></symbol><symbol id="si-zfinder-select-all" viewBox="0 0 48 48"><path d="M0 0h48v48H0z" fill="none"/><path d="M6 10h4V6c-2.21 0-4 1.79-4 4zm0 16h4v-4H6v4zm8 16h4v-4h-4v4zM6 18h4v-4H6v4zM26 6h-4v4h4V6zm12 0v4h4c0-2.21-1.79-4-4-4zM10 42v-4H6c0 2.21 1.79 4 4 4zm-4-8h4v-4H6v4zM18 6h-4v4h4V6zm4 36h4v-4h-4v4zm16-16h4v-4h-4v4zm0 16c2.21 0 4-1.79 4-4h-4v4zm0-24h4v-4h-4v4zm0 16h4v-4h-4v4zm-8 8h4v-4h-4v4zm0-32h4V6h-4v4zM14 34h20V14H14v20zm4-16h12v12H18V18z"/></symbol><symbol id="si-zfinder-settings" baseProfile="full" viewBox="0 0 76.00 76.00"><path d="M38 23.5c.864 0 1.71.076 2.534.22l2.093-5.182 5.563 2.249-2.094 5.182a14.578 14.578 0 0 1 3.935 3.935l5.182-2.094 2.249 5.563-5.183 2.093a14.588 14.588 0 0 1 0 5.068l5.183 2.093-2.249 5.563-5.182-2.094a14.58 14.58 0 0 1-3.52 3.645l2.273 5.105-5.48 2.443-2.273-5.106c-.978.208-1.992.317-3.031.317-.864 0-1.71-.076-2.534-.22l-2.093 5.182-5.563-2.249 2.094-5.182a14.582 14.582 0 0 1-3.935-3.935l-5.182 2.094-2.249-5.563 5.183-2.093a14.588 14.588 0 0 1 0-5.068l-5.183-2.093 2.249-5.563 5.182 2.094a14.582 14.582 0 0 1 3.52-3.645l-2.273-5.105 5.48-2.443 2.273 5.106A14.56 14.56 0 0 1 38 23.5zm0 4.5c-5.523 0-10 4.477-10 10s4.477 10 10 10 10-4.477 10-10-4.477-10-10-10z"/></symbol><symbol id="si-zfinder-tiles" baseProfile="full" viewBox="0 0 76.00 76.00"><path d="M33 33h10v10H33V33zm0-13h10v10H33V20zm-13 0h10v10H20V20zm0 13h10v10H20V33zm26 0h10v10H46V33zm0-13h10v10H46V20zM20 46h10v10H20V46zm13 0h10v10H33V46zm13 0h10v10H46V46z"/></symbol><symbol id="si-zfinder-tv" viewBox="0 0 48 48"><path d="M0 0h48v48H0z" fill="none"/><path d="M42 6H6c-2.21 0-4 1.79-4 4v24c0 2.21 1.79 4 4 4h10v4h16v-4h10c2.21 0 3.98-1.79 3.98-4L46 10c0-2.21-1.79-4-4-4zm0 28H6V10h36v24z"/></symbol><symbol id="si-zfinder-upload" baseProfile="full" viewBox="0 0 76.00 76.00"><path d="M25.333 23.75h25.334V19H25.333v4.75zm9.5 36.417h6.334V39.583l7.916 9.5v-9.5L38 26.917 26.917 39.583v9.5l7.916-9.5v20.584z"/></symbol><symbol id="si-zfinder-user" baseProfile="full" viewBox="0 0 76.00 76.00"><path d="M38 19c5.542 0 7.917 3.167 7.117 9.813a2.374 2.374 0 0 1-.51 4.342c-.413 1.468-1.053 2.768-1.857 3.808v4.995c2.639.528 4.75.792 7.917 2.375 3.166 1.584 4.222 3.035 6.333 5.146V57H19v-7.52c2.111-2.112 3.167-3.563 6.333-5.147 3.167-1.583 5.278-1.847 7.917-2.375v-4.995c-.804-1.04-1.444-2.34-1.856-3.808a2.376 2.376 0 0 1-.511-4.342C30.083 22.167 32.458 19 38 19z"/></symbol><symbol id="si-zfinder-warning" baseProfile="full" viewBox="0 0 76.00 76.00"><path d="M58.583 55.417H17.417a4.75 4.75 0 0 1 0-6.717L35.2 15.84a4.75 4.75 0 0 1 6.718 0L58.583 48.7a4.75 4.75 0 0 1 0 6.717zM34.042 25.73l1.979 16.23h3.958l1.98-16.23h-7.917zM38 44.333a3.167 3.167 0 1 0 0 6.334 3.167 3.167 0 0 0 0-6.334z"/></symbol><symbol id="si-zfinder-warning-circle" baseProfile="full" viewBox="0 0 76.00 76.00"><path d="M38 19c10.493 0 19 8.507 19 19s-8.507 19-19 19-19-8.507-19-19 8.507-19 19-19zm-3.958 6.73l1.979 16.228h3.958l1.98-16.229h-7.917zM38 44.332a3.167 3.167 0 1 0 0 6.334 3.167 3.167 0 0 0 0-6.334z"/></symbol></svg>