<?xml version="1.0" encoding="UTF-8" standalone="yes"?><svg xmlns="http://www.w3.org/2000/svg" xmlns:xlink="http://www.w3.org/1999/xlink" height="345px" style="width:538px;height:345px;" version="1.1" viewBox="0 0 538 345" width="538px"><defs><filter height="300%" id="fsdjsfu" width="300%" x="-1" y="-1"><feGaussianBlur result="blurOut" stdDeviation="2.0"/><feColorMatrix in="blurOut" result="blurOut2" type="matrix" values="0 0 0 0 0 0 0 0 0 0 0 0 0 0 0 0 0 0 .4 0"/><feOffset dx="4.0" dy="4.0" in="blurOut2" result="blurOut3"/><feBlend in="SourceGraphic" in2="blurOut3" mode="normal"/></filter></defs><g><!--class AbstractList--><rect fill="#FEFECE" filter="url(#fsdjsfu)" height="48" style="stroke: #A80036; stroke-width: 1.5;" width="99" x="176" y="155"/><ellipse cx="191" cy="171" fill="#A9DCDF" rx="11" ry="11" style="stroke: #A80036; stroke-width: 1.0;"/><path d="M191.1133,166.3481 L189.9595,171.4199 L192.2754,171.4199 Z M189.6191,164.1069 L192.6157,164.1069 L195.9609,176.5 L193.5122,176.5 L192.7485,173.437 L189.4697,173.437 L188.7227,176.5 L186.2739,176.5 Z "/><text fill="#000000" font-family="sans-serif" font-size="12" font-style="italic" lengthAdjust="spacingAndGlyphs" textLength="67" x="205" y="175.5352">AbstractList</text><line style="stroke: #A80036; stroke-width: 1.5;" x1="177" x2="274" y1="187" y2="187"/><line style="stroke: #A80036; stroke-width: 1.5;" x1="177" x2="274" y1="195" y2="195"/><!--class AbstractCollection--><rect fill="#FEFECE" filter="url(#fsdjsfu)" height="48" style="stroke: #A80036; stroke-width: 1.5;" width="135" x="6" y="155"/><ellipse cx="21" cy="171" fill="#A9DCDF" rx="11" ry="11" style="stroke: #A80036; stroke-width: 1.0;"/><path d="M21.1133,166.3481 L19.9595,171.4199 L22.2754,171.4199 Z M19.6191,164.1069 L22.6157,164.1069 L25.9609,176.5 L23.5122,176.5 L22.7485,173.437 L19.4697,173.437 L18.7227,176.5 L16.2739,176.5 Z "/><text fill="#000000" font-family="sans-serif" font-size="12" font-style="italic" lengthAdjust="spacingAndGlyphs" textLength="103" x="35" y="175.5352">AbstractCollection</text><line style="stroke: #A80036; stroke-width: 1.5;" x1="7" x2="140" y1="187" y2="187"/><line style="stroke: #A80036; stroke-width: 1.5;" x1="7" x2="140" y1="195" y2="195"/><!--class List--><rect fill="#FEFECE" filter="url(#fsdjsfu)" height="48" style="stroke: #A80036; stroke-width: 1.5;" width="51" x="188" y="27.5"/><ellipse cx="203" cy="43.5" fill="#B4A7E5" rx="11" ry="11" style="stroke: #A80036; stroke-width: 1.0;"/><path d="M198.9277,39.2651 L198.9277,37.1069 L206.3071,37.1069 L206.3071,39.2651 L203.8418,39.2651 L203.8418,47.3418 L206.3071,47.3418 L206.3071,49.5 L198.9277,49.5 L198.9277,47.3418 L201.3931,47.3418 L201.3931,39.2651 Z "/><text fill="#000000" font-family="sans-serif" font-size="12" font-style="italic" lengthAdjust="spacingAndGlyphs" textLength="19" x="217" y="48.0352">List</text><line style="stroke: #A80036; stroke-width: 1.5;" x1="189" x2="238" y1="59.5" y2="59.5"/><line style="stroke: #A80036; stroke-width: 1.5;" x1="189" x2="238" y1="67.5" y2="67.5"/><!--class Collection--><rect fill="#FEFECE" filter="url(#fsdjsfu)" height="48" style="stroke: #A80036; stroke-width: 1.5;" width="87" x="42" y="27.5"/><ellipse cx="57" cy="43.5" fill="#B4A7E5" rx="11" ry="11" style="stroke: #A80036; stroke-width: 1.0;"/><path d="M52.9277,39.2651 L52.9277,37.1069 L60.3071,37.1069 L60.3071,39.2651 L57.8418,39.2651 L57.8418,47.3418 L60.3071,47.3418 L60.3071,49.5 L52.9277,49.5 L52.9277,47.3418 L55.3931,47.3418 L55.3931,39.2651 Z "/><text fill="#000000" font-family="sans-serif" font-size="12" font-style="italic" lengthAdjust="spacingAndGlyphs" textLength="55" x="71" y="48.0352">Collection</text><line style="stroke: #A80036; stroke-width: 1.5;" x1="43" x2="128" y1="59.5" y2="59.5"/><line style="stroke: #A80036; stroke-width: 1.5;" x1="43" x2="128" y1="67.5" y2="67.5"/><!--class ArrayList--><rect fill="#FEFECE" filter="url(#fsdjsfu)" height="73.9102" style="stroke: #A80036; stroke-width: 1.5;" width="124" x="163.5" y="263"/><ellipse cx="197.4" cy="279" fill="#ADD1B2" rx="11" ry="11" style="stroke: #A80036; stroke-width: 1.0;"/><path d="M200.3731,284.6431 Q199.7921,284.9419 199.1529,285.0913 Q198.5138,285.2407 197.8082,285.2407 Q195.3014,285.2407 193.9815,283.5889 Q192.6617,281.937 192.6617,278.8159 Q192.6617,275.6865 193.9815,274.0347 Q195.3014,272.3828 197.8082,272.3828 Q198.5138,272.3828 199.1612,272.5322 Q199.8087,272.6816 200.3731,272.9805 L200.3731,275.7031 Q199.7423,275.1221 199.1488,274.8523 Q198.5553,274.5825 197.9244,274.5825 Q196.5797,274.5825 195.8949,275.6492 Q195.2101,276.7158 195.2101,278.8159 Q195.2101,280.9077 195.8949,281.9744 Q196.5797,283.041 197.9244,283.041 Q198.5553,283.041 199.1488,282.7712 Q199.7423,282.5015 200.3731,281.9204 Z "/><text fill="#000000" font-family="sans-serif" font-size="12" lengthAdjust="spacingAndGlyphs" textLength="50" x="215.6" y="283.5352">ArrayList</text><line style="stroke: #A80036; stroke-width: 1.5;" x1="164.5" x2="286.5" y1="295" y2="295"/><text fill="#000000" font-family="sans-serif" font-size="11" lengthAdjust="spacingAndGlyphs" textLength="112" x="169.5" y="309.6348">Object[] elementData</text><line style="stroke: #A80036; stroke-width: 1.5;" x1="164.5" x2="286.5" y1="315.9551" y2="315.9551"/><text fill="#000000" font-family="sans-serif" font-size="11" lengthAdjust="spacingAndGlyphs" textLength="29" x="169.5" y="330.5898">size()</text><!--class TimeUnit--><rect fill="#FEFECE" filter="url(#fsdjsfu)" height="86.8652" style="stroke: #A80036; stroke-width: 1.5;" width="83" x="274" y="8"/><ellipse cx="289" cy="24" fill="#EB937F" rx="11" ry="11" style="stroke: #A80036; stroke-width: 1.0;"/><path d="M293.1143,30 L285.3945,30 L285.3945,17.6069 L293.1143,17.6069 L293.1143,19.7651 L287.8433,19.7651 L287.8433,22.438 L292.6162,22.438 L292.6162,24.5962 L287.8433,24.5962 L287.8433,27.8418 L293.1143,27.8418 Z "/><text fill="#000000" font-family="sans-serif" font-size="12" lengthAdjust="spacingAndGlyphs" textLength="51" x="303" y="28.5352">TimeUnit</text><line style="stroke: #A80036; stroke-width: 1.5;" x1="275" x2="356" y1="40" y2="40"/><text fill="#000000" font-family="sans-serif" font-size="11" lengthAdjust="spacingAndGlyphs" textLength="29" x="280" y="54.6348">DAYS</text><text fill="#000000" font-family="sans-serif" font-size="11" lengthAdjust="spacingAndGlyphs" textLength="38" x="280" y="67.5898">HOURS</text><text fill="#000000" font-family="sans-serif" font-size="11" lengthAdjust="spacingAndGlyphs" textLength="47" x="280" y="80.5449">MINUTES</text><line style="stroke: #A80036; stroke-width: 1.5;" x1="275" x2="356" y1="86.8652" y2="86.8652"/><!--class SuppressWarnings--><rect fill="#FEFECE" filter="url(#fsdjsfu)" height="48" style="stroke: #A80036; stroke-width: 1.5;" width="137" x="392" y="27.5"/><ellipse cx="407" cy="43.5" fill="#A9DCDF" rx="11" ry="11" style="stroke: #A80036; stroke-width: 1.0;"/><path d="M409.0767,43.9761 Q409.0767,43.0381 408.6533,42.5068 Q408.23,41.9756 407.4912,41.9756 Q406.7524,41.9756 406.3333,42.5068 Q405.9141,43.0381 405.9141,43.9761 Q405.9141,44.9224 406.3333,45.4536 Q406.7524,45.9849 407.4912,45.9849 Q408.23,45.9849 408.6533,45.4536 Q409.0767,44.9224 409.0767,43.9761 Z M410.6206,47.3794 L408.9937,47.3794 L408.9937,46.6987 Q408.6782,47.1387 408.2507,47.342 Q407.8232,47.5454 407.2256,47.5454 Q405.8643,47.5454 405.03,46.5659 Q404.1958,45.5864 404.1958,43.9761 Q404.1958,42.374 405.0259,41.3987 Q405.856,40.4233 407.2256,40.4233 Q407.8149,40.4233 408.2632,40.6267 Q408.7114,40.8301 408.9937,41.2202 L408.9937,40.8799 Q408.9937,39.751 408.3752,39.1367 Q407.7568,38.5225 406.6113,38.5225 Q404.8848,38.5225 403.7932,40.0415 Q402.7017,41.5605 402.7017,43.9927 Q402.7017,46.541 403.9634,48.0476 Q405.2251,49.5542 407.3252,49.5542 Q407.9893,49.5542 408.6118,49.3591 Q409.2344,49.1641 409.8071,48.7739 L410.5708,50.2349 Q409.8984,50.6914 409.1057,50.9197 Q408.313,51.1479 407.4082,51.1479 Q404.5029,51.1479 402.7764,49.2139 Q401.0498,47.2798 401.0498,43.9927 Q401.0498,40.7803 402.6021,38.8503 Q404.1543,36.9204 406.7109,36.9204 Q408.5205,36.9204 409.5706,38.012 Q410.6206,39.1035 410.6206,40.9878 Z "/><text fill="#000000" font-family="sans-serif" font-size="12" lengthAdjust="spacingAndGlyphs" textLength="105" x="421" y="48.0352">SuppressWarnings</text><line style="stroke: #A80036; stroke-width: 1.5;" x1="393" x2="528" y1="59.5" y2="59.5"/><line style="stroke: #A80036; stroke-width: 1.5;" x1="393" x2="528" y1="67.5" y2="67.5"/><path d="M217.609,95.469 C219.506,115.318 221.686,138.107 223.272,154.702 " fill="none" style="stroke: #A80036; stroke-width: 1.0;"/><polygon fill="none" points="210.637,96.094,215.701,75.519,224.573,94.762,210.637,96.094" style="stroke: #A80036; stroke-width: 1.0;"/><path d="M81.3914,95.469 C79.4935,115.318 77.3145,138.107 75.7277,154.702 " fill="none" style="stroke: #A80036; stroke-width: 1.0;"/><polygon fill="none" points="74.427,94.762,83.299,75.519,88.3635,96.094,74.427,94.762" style="stroke: #A80036; stroke-width: 1.0;"/><path d="M149.387,51.5 C162.201,51.5 175.016,51.5 187.83,51.5 " fill="none" style="stroke: #A80036; stroke-width: 1.0;"/><polygon fill="none" points="149.25,58.5,129.25,51.5,149.25,44.5,149.25,58.5" style="stroke: #A80036; stroke-width: 1.0;"/><path d="M161.45,179 C166.223,179 170.996,179 175.769,179 " fill="none" style="stroke: #A80036; stroke-width: 1.0;"/><polygon fill="none" points="161.188,186,141.188,179,161.187,172,161.188,186" style="stroke: #A80036; stroke-width: 1.0;"/><path d="M225.5,223.433 C225.5,236.332 225.5,250.3199 225.5,262.714 " fill="none" style="stroke: #A80036; stroke-width: 1.0;"/><polygon fill="none" points="218.5,223.227,225.5,203.227,232.5,223.227,218.5,223.227" style="stroke: #A80036; stroke-width: 1.0;"/></g></svg>