<?xml version="1.0" encoding="UTF-8" standalone="no"?>
<!DOCTYPE svg PUBLIC "-//W3C//DTD SVG 1.1//EN"
 "http://www.w3.org/Graphics/SVG/1.1/DTD/svg11.dtd">
<!-- Generated by graphviz version 2.38.0 (20140413.2041)
 -->
<!-- Title: staging Pages: 1 -->
<svg width="644pt" height="398pt"
 viewBox="0.00 0.00 644.38 397.66" xmlns="http://www.w3.org/2000/svg" xmlns:xlink="http://www.w3.org/1999/xlink">
<g id="graph0" class="graph" transform="scale(1 1) rotate(0) translate(4 393.663)">
<title>staging</title>
<polygon fill="white" stroke="none" points="-4,4 -4,-393.663 640.378,-393.663 640.378,4 -4,4"/>
<text text-anchor="middle" x="318.189" y="-373.063" font-family="Times,serif" font-size="14.00">Undoing commits in Git</text>
<text text-anchor="middle" x="318.189" y="-356.263" font-family="Times,serif" font-size="14.00">Nick Desaulniers</text>
<!-- a -->
<g id="node1" class="node"><title>a</title>
<ellipse fill="none" stroke="black" cx="292.245" cy="-318.647" rx="62.3631" ry="29.3315"/>
<text text-anchor="middle" x="292.245" y="-322.847" font-family="Times,serif" font-size="14.00">not modified</text>
<text text-anchor="middle" x="292.245" y="-306.047" font-family="Times,serif" font-size="14.00">version A</text>
</g>
<!-- b -->
<g id="node2" class="node"><title>b</title>
<ellipse fill="none" stroke="red" cx="123.245" cy="-218.431" rx="45.2266" ry="18"/>
<text text-anchor="middle" x="123.245" y="-214.231" font-family="Times,serif" font-size="14.00">unstaged</text>
</g>
<!-- a&#45;&gt;b -->
<g id="edge1" class="edge"><title>a&#45;&gt;b</title>
<path fill="none" stroke="black" d="M230.2,-315.896C195.545,-311.486 154.504,-299.924 129.857,-271.231 124.146,-264.582 121.805,-255.566 121.104,-246.92"/>
<polygon fill="black" stroke="black" points="124.601,-246.685 120.946,-236.741 117.602,-246.794 124.601,-246.685"/>
<text text-anchor="middle" x="169.439" y="-258.631" font-family="Times,serif" font-size="14.00">&lt;modify file&gt;</text>
</g>
<!-- b&#45;&gt;a -->
<g id="edge2" class="edge"><title>b&#45;&gt;a</title>
<path fill="none" stroke="black" d="M156.451,-230.851C172.545,-236.944 191.883,-245.109 208.245,-254.431 217.512,-259.711 235.826,-273.346 252.994,-286.607"/>
<polygon fill="black" stroke="black" points="251.241,-289.677 261.286,-293.048 255.536,-284.149 251.241,-289.677"/>
<text text-anchor="middle" x="284.625" y="-258.631" font-family="Times,serif" font-size="14.00">git checkout &lt;file&gt;</text>
</g>
<!-- c -->
<g id="node3" class="node"><title>c</title>
<ellipse fill="none" stroke="green" cx="124.245" cy="-18" rx="35.9135" ry="18"/>
<text text-anchor="middle" x="124.245" y="-13.8" font-family="Times,serif" font-size="14.00">staged</text>
</g>
<!-- b&#45;&gt;c -->
<g id="edge3" class="edge"><title>b&#45;&gt;c</title>
<path fill="none" stroke="black" d="M115.566,-200.647C109.66,-186.767 101.989,-166.365 98.8035,-147.631 94.4208,-121.854 94.2572,-114.549 98.8035,-88.8 101.422,-73.9671 106.946,-58.1418 112.18,-45.3163"/>
<polygon fill="black" stroke="black" points="115.556,-46.3217 116.254,-35.7499 109.115,-43.5791 115.556,-46.3217"/>
<text text-anchor="middle" x="137.466" y="-114.016" font-family="Times,serif" font-size="14.00">git add &lt;file&gt;</text>
</g>
<!-- d -->
<g id="node4" class="node"><title>d</title>
<ellipse fill="none" stroke="black" cx="246.245" cy="-118.216" rx="62.3631" ry="29.3315"/>
<text text-anchor="middle" x="246.245" y="-122.416" font-family="Times,serif" font-size="14.00">not modified</text>
<text text-anchor="middle" x="246.245" y="-105.616" font-family="Times,serif" font-size="14.00">version B</text>
</g>
<!-- b&#45;&gt;d -->
<g id="edge4" class="edge"><title>b&#45;&gt;d</title>
<path fill="none" stroke="black" d="M118.573,-200.104C116.71,-189.271 116.387,-175.543 123.241,-165.631 123.78,-164.852 156.843,-152.397 188.551,-140.586"/>
<polygon fill="black" stroke="black" points="190.158,-143.723 198.31,-136.955 187.717,-137.162 190.158,-143.723"/>
<text text-anchor="middle" x="173.747" y="-169.831" font-family="Times,serif" font-size="14.00">git commit &lt;file&gt;</text>
</g>
<!-- c&#45;&gt;a -->
<g id="edge5" class="edge"><title>c&#45;&gt;a</title>
<path fill="none" stroke="black" d="M159.74,-21.0497C218.505,-24.9422 333.025,-34.7863 368.245,-54 443.871,-95.2567 465.121,-119.722 495.245,-200.431 518.526,-262.808 429.144,-293.331 361.589,-307.238"/>
<polygon fill="black" stroke="black" points="360.511,-303.883 351.376,-309.25 361.864,-310.751 360.511,-303.883"/>
<text text-anchor="middle" x="561.812" y="-169.831" font-family="Times,serif" font-size="14.00">git checkout HEAD &lt;file&gt;</text>
</g>
<!-- c&#45;&gt;b -->
<g id="edge6" class="edge"><title>c&#45;&gt;b</title>
<path fill="none" stroke="black" d="M94.1089,-27.9324C66.5778,-37.8782 27.5165,-56.9046 9.5931,-88.8 -3.21622,-111.595 -3.17176,-124.812 9.5931,-147.631 24.4281,-174.152 53.9203,-191.825 79.1435,-202.752"/>
<polygon fill="black" stroke="black" points="77.9818,-206.058 88.5621,-206.614 80.6375,-199.581 77.9818,-206.058"/>
<text text-anchor="middle" x="51.5708" y="-114.016" font-family="Times,serif" font-size="14.00">git reset &lt;file&gt;</text>
</g>
<!-- c&#45;&gt;d -->
<g id="edge7" class="edge"><title>c&#45;&gt;d</title>
<path fill="none" stroke="black" d="M119.991,-36.358C118.369,-47.2038 118.318,-60.9338 125.241,-70.8 126.299,-72.3074 157.937,-84.4182 188.594,-95.8898"/>
<polygon fill="black" stroke="black" points="187.448,-99.1983 198.041,-99.417 189.897,-92.6404 187.448,-99.1983"/>
<text text-anchor="middle" x="174.747" y="-58.2" font-family="Times,serif" font-size="14.00">git commit &lt;file&gt;</text>
</g>
<!-- d&#45;&gt;a -->
<g id="edge8" class="edge"><title>d&#45;&gt;a</title>
<path fill="none" stroke="black" d="M296.991,-135.733C310.955,-142.754 324.618,-152.454 333.245,-165.631 379.427,-236.169 350.826,-246.28 340.245,-271.231 338.067,-276.367 335.011,-281.213 331.485,-285.695"/>
<polygon fill="black" stroke="black" points="328.716,-283.544 324.718,-293.356 333.962,-288.178 328.716,-283.544"/>
<text text-anchor="middle" x="425.419" y="-214.231" font-family="Times,serif" font-size="14.00">git reset &#45;&#45;hard HEAD~</text>
</g>
<!-- d&#45;&gt;b -->
<g id="edge9" class="edge"><title>d&#45;&gt;b</title>
<path fill="none" stroke="black" d="M241.026,-147.675C237.52,-159.756 231.732,-173.16 222.245,-182.431 209.384,-194.999 191.736,-203.079 174.899,-208.262"/>
<polygon fill="black" stroke="black" points="173.812,-204.931 165.122,-210.991 175.695,-211.674 173.812,-204.931"/>
<text text-anchor="middle" x="281.57" y="-169.831" font-family="Times,serif" font-size="14.00">git reset HEAD~</text>
</g>
<!-- d&#45;&gt;c -->
<g id="edge10" class="edge"><title>d&#45;&gt;c</title>
<path fill="none" stroke="black" d="M242.004,-88.7766C238.895,-76.6994 233.522,-63.2934 224.245,-54 209.306,-39.0345 187.618,-30.4519 168.255,-25.5375"/>
<polygon fill="black" stroke="black" points="168.918,-22.0988 158.39,-23.2875 167.361,-28.9235 168.918,-22.0988"/>
<text text-anchor="middle" x="300.479" y="-58.2" font-family="Times,serif" font-size="14.00">git reset &#45;&#45;soft HEAD~</text>
</g>
</g>
</svg>
