<?xml version="1.0" encoding="UTF-8" standalone="no"?>
<!DOCTYPE svg PUBLIC "-//W3C//DTD SVG 1.1//EN"
 "http://www.w3.org/Graphics/SVG/1.1/DTD/svg11.dtd">
<!-- Generated by graphviz version 2.38.0 (20140413.2041)
 -->
<!-- Title: building_map Pages: 1 -->
<svg width="346pt" height="317pt"
 viewBox="0.00 0.00 345.55 317.00" xmlns="http://www.w3.org/2000/svg" xmlns:xlink="http://www.w3.org/1999/xlink">
<g id="graph0" class="graph" transform="scale(1 1) rotate(0) translate(4 313)">
<title>building_map</title>
<polygon fill="white" stroke="none" points="-4,4 -4,-313 341.551,-313 341.551,4 -4,4"/>
<g id="clust1" class="cluster"><title>cluster_0</title>
<polygon fill="none" stroke="grey" points="8,-8 8,-301 199.401,-301 199.401,-8 8,-8"/>
<text text-anchor="middle" x="103.701" y="-284.4" font-family="Times,serif" font-size="14.00">source</text>
</g>
<g id="clust2" class="cluster"><title>cluster_1</title>
<polygon fill="none" stroke="grey" points="219.401,-62 219.401,-247 329.551,-247 329.551,-62 219.401,-62"/>
<text text-anchor="middle" x="274.476" y="-230.4" font-family="Times,serif" font-size="14.00">target</text>
</g>
<!-- Markdown(.md/.markdown) -->
<g id="node1" class="node"><title>Markdown(.md/.markdown)</title>
<polygon fill="none" stroke="black" points="191.602,-268 15.7989,-268 15.7989,-232 191.602,-232 191.602,-268"/>
<text text-anchor="middle" x="103.701" y="-245.8" font-family="Times,serif" font-size="14.00">Markdown(.md/.markdown)</text>
</g>
<!-- HTML(.html) -->
<g id="node7" class="node"><title>HTML(.html)</title>
<polygon fill="lightgrey" stroke="black" points="321.625,-214 227.326,-214 227.326,-178 321.625,-178 321.625,-214"/>
<text text-anchor="middle" x="274.476" y="-191.8" font-family="Times,serif" font-size="14.00">HTML(.html)</text>
</g>
<!-- Markdown(.md/.markdown)&#45;&gt;HTML(.html) -->
<g id="edge4" class="edge"><title>Markdown(.md/.markdown)&#45;&gt;HTML(.html)</title>
<path fill="none" stroke="black" d="M170.349,-231.945C180.123,-229.065 190.05,-226.033 199.401,-223 205.297,-221.088 211.424,-219.007 217.517,-216.878"/>
<polygon fill="black" stroke="black" points="218.769,-220.148 227.025,-213.509 216.431,-213.55 218.769,-220.148"/>
</g>
<!-- Graphviz(.gv/.dot) -->
<g id="node2" class="node"><title>Graphviz(.gv/.dot)</title>
<polygon fill="none" stroke="black" points="163.89,-214 43.5111,-214 43.5111,-178 163.89,-178 163.89,-214"/>
<text text-anchor="middle" x="103.701" y="-191.8" font-family="Times,serif" font-size="14.00">Graphviz(.gv/.dot)</text>
</g>
<!-- SVG(.svg) -->
<g id="node6" class="node"><title>SVG(.svg)</title>
<polygon fill="lightgrey" stroke="black" points="312.738,-160 236.214,-160 236.214,-124 312.738,-124 312.738,-160"/>
<text text-anchor="middle" x="274.476" y="-137.8" font-family="Times,serif" font-size="14.00">SVG(.svg)</text>
</g>
<!-- Graphviz(.gv/.dot)&#45;&gt;SVG(.svg) -->
<g id="edge3" class="edge"><title>Graphviz(.gv/.dot)&#45;&gt;SVG(.svg)</title>
<path fill="none" stroke="black" d="M164.004,-179.799C175.779,-176.384 188.018,-172.692 199.401,-169 208.198,-166.147 217.511,-162.919 226.455,-159.713"/>
<polygon fill="black" stroke="black" points="227.765,-162.961 235.973,-156.262 225.379,-156.38 227.765,-162.961"/>
</g>
<!-- Plantuml(.plantuml) -->
<g id="node3" class="node"><title>Plantuml(.plantuml)</title>
<polygon fill="none" stroke="black" points="168.358,-160 39.0427,-160 39.0427,-124 168.358,-124 168.358,-160"/>
<text text-anchor="middle" x="103.701" y="-137.8" font-family="Times,serif" font-size="14.00">Plantuml(.plantuml)</text>
</g>
<!-- Plantuml(.plantuml)&#45;&gt;SVG(.svg) -->
<g id="edge2" class="edge"><title>Plantuml(.plantuml)&#45;&gt;SVG(.svg)</title>
<path fill="none" stroke="black" d="M168.507,-142C187.547,-142 208.076,-142 225.886,-142"/>
<polygon fill="black" stroke="black" points="226.026,-145.5 236.026,-142 226.026,-138.5 226.026,-145.5"/>
</g>
<!-- XMind(.xmind) -->
<g id="node4" class="node"><title>XMind(.xmind)</title>
<polygon fill="none" stroke="black" stroke-dasharray="5,2" points="156.245,-106 51.1564,-106 51.1564,-70 156.245,-70 156.245,-106"/>
<text text-anchor="middle" x="103.701" y="-83.8" font-family="Times,serif" font-size="14.00">XMind(.xmind)</text>
</g>
<!-- XMind(.xmind)&#45;&gt;SVG(.svg) -->
<g id="edge1" class="edge"><title>XMind(.xmind)&#45;&gt;SVG(.svg)</title>
<path fill="none" stroke="black" d="M156.511,-102.046C170.494,-106.034 185.578,-110.517 199.401,-115 208.198,-117.853 217.511,-121.081 226.455,-124.287"/>
<polygon fill="black" stroke="black" points="225.379,-127.62 235.973,-127.738 227.765,-121.039 225.379,-127.62"/>
</g>
<!-- readme.md -->
<g id="node5" class="node"><title>readme.md</title>
<polygon fill="lightyellow" stroke="black" points="142.787,-52 64.6139,-52 64.6139,-16 142.787,-16 142.787,-52"/>
<text text-anchor="middle" x="103.701" y="-29.8" font-family="Times,serif" font-size="14.00">readme.md</text>
</g>
<!-- index.html -->
<g id="node8" class="node"><title>index.html</title>
<polygon fill="lightyellow" stroke="black" points="312.753,-106 236.198,-106 236.198,-70 312.753,-70 312.753,-106"/>
<text text-anchor="middle" x="274.476" y="-83.8" font-family="Times,serif" font-size="14.00">index.html</text>
</g>
<!-- readme.md&#45;&gt;index.html -->
<g id="edge5" class="edge"><title>readme.md&#45;&gt;index.html</title>
<path fill="none" stroke="black" d="M143.134,-44.283C160.42,-49.0807 181.025,-55.0398 199.401,-61 208.198,-63.8531 217.511,-67.0809 226.455,-70.2868"/>
<polygon fill="black" stroke="black" points="225.379,-73.6197 235.973,-73.7382 227.765,-67.0389 225.379,-73.6197"/>
</g>
</g>
</svg>
